<svg width="24" height="26" viewBox="0 0 24 26" fill="none" xmlns="http://www.w3.org/2000/svg">
<path fill-rule="evenodd" clip-rule="evenodd" d="M2.66667 5.76804L5.33333 5.76804L5.33333 7.06495C5.33333 7.78122 5.93029 8.36187 6.66667 8.36187C7.40305 8.36187 8 7.78122 8 7.06495L8 5.76804L16 5.76804L16 7.06495C16 7.78122 16.597 8.36187 17.3333 8.36187C18.0697 8.36187 18.6667 7.78122 18.6667 7.06495L18.6667 5.76804L21.3333 5.76804L21.3333 22.6279L2.66667 22.6279L2.66667 5.76804ZM18.6667 3.17421L24 3.17421L24 5.76804L24 22.6279C24 24.0604 22.8061 25.2217 21.3333 25.2217L2.66667 25.2217C1.19391 25.2217 2.75953e-06 24.0604 2.82391e-06 22.6279L3.58157e-06 5.76804L3.69813e-06 3.17421L5.33333 3.17421L5.33333 0.580383L8 0.580383L8 3.17421L16 3.17421L16 0.580383L18.6667 0.580383L18.6667 3.17421ZM8 13.5495L8 10.9557L5.33334 10.9557L5.33334 13.5495L8 13.5495ZM8 16.1433L8 18.7372L5.33334 18.7372L5.33334 16.1433L8 16.1433ZM13.3333 18.7372L13.3333 16.1433L10.6667 16.1433L10.6667 18.7372L13.3333 18.7372ZM18.6667 16.1433L18.6667 18.7372L16 18.7372L16 16.1433L18.6667 16.1433ZM18.6667 13.5495L18.6667 10.9557L16 10.9557L16 13.5495L18.6667 13.5495ZM13.3333 10.9557L13.3333 13.5495L10.6667 13.5495L10.6667 10.9557L13.3333 10.9557Z" fill="#0037FF"/>
</svg>
