<svg width="28" height="27" viewBox="0 0 28 27" fill="none" xmlns="http://www.w3.org/2000/svg">
<path fill-rule="evenodd" clip-rule="evenodd" d="M14 24.272C19.891 24.272 24.6667 19.4963 24.6667 13.6053C24.6667 7.71427 19.891 2.93864 14 2.93864C8.10897 2.93864 3.33335 7.71427 3.33334 13.6053C3.33334 19.4963 8.10897 24.272 14 24.272ZM14 26.9386C21.3638 26.9386 27.3333 20.9691 27.3333 13.6053C27.3333 6.24151 21.3638 0.271972 14 0.271972C6.63621 0.271972 0.666679 6.24151 0.666679 13.6053C0.666678 20.9691 6.63621 26.9386 14 26.9386ZM15.3333 5.60531L15.3333 15.7386L12.6667 15.7386L12.6667 5.60531L15.3333 5.60531ZM14 17.6053C12.8954 17.6053 12 18.5007 12 19.6053C12 20.7099 12.8954 21.6053 14 21.6053C15.1046 21.6053 16 20.7099 16 19.6053C16 18.5007 15.1046 17.6053 14 17.6053Z" fill="#0037FF"/>
</svg>
