<svg width="147" height="32" viewBox="0 0 147 32" fill="none" xmlns="http://www.w3.org/2000/svg">
<path fill-rule="evenodd" clip-rule="evenodd" d="M21.683 12.5085C21.2362 12.5459 20.7877 12.4618 20.3848 12.2652L13.007 8.67598H19.5075C20.5703 8.67598 22.4786 9.40778 22.9671 10.6042C23.4556 11.8006 22.656 12.4447 21.6889 12.5165L21.683 12.5085ZM0 0H31.8026V31.8026H0V8.68794L15.655 15.9262H4.14556L19.5414 25.1585C20.7019 25.8146 21.4317 26.0558 22.4407 26.0239C24.7637 26.0239 25.9202 23.3021 25.2024 20.7458C24.9452 19.8704 24.4048 19.1087 23.7208 18.337C26.6022 17.9721 28.0877 15.0249 27.2124 12.1934C26.2154 9.04886 23.3121 5.83649 19.338 5.7986H0V0Z" fill="#004289"/>
<path fill-rule="evenodd" clip-rule="evenodd" d="M75.4597 15.9661C75.4631 15.2496 75.3276 14.5393 75.0609 13.8744C74.7962 13.2169 74.4038 12.6185 73.9063 12.1136C73.4279 11.6091 72.8502 11.2092 72.2094 10.9392C71.5653 10.6645 70.8718 10.524 70.1715 10.5264C69.4731 10.5217 68.7808 10.6574 68.1357 10.9252C67.4882 11.1983 66.9033 11.6006 66.4168 12.1077C65.9198 12.6082 65.5285 13.2036 65.2663 13.8584C65.0007 14.5272 64.8653 15.2405 64.8675 15.9601C64.8649 16.6739 65.0004 17.3814 65.2663 18.0439C65.5324 18.6973 65.9231 19.2926 66.4168 19.7966C67.1482 20.5499 68.0891 21.0659 69.1175 21.2775C70.1459 21.489 71.2142 21.3864 72.1835 20.983C73.4901 20.4176 74.5221 19.3613 75.0569 18.0419C75.324 17.3826 75.4594 16.6774 75.4557 15.9661H75.4597ZM77.9183 15.9661C77.9266 16.9707 77.7295 17.9664 77.3393 18.8922C76.9491 19.818 76.374 20.6543 75.6491 21.3499C74.9201 22.058 74.0617 22.6192 73.1207 23.003C72.1836 23.3866 71.1802 23.5824 70.1676 23.5793C69.1424 23.5834 68.1263 23.387 67.1765 23.001C66.2386 22.6212 65.3848 22.0601 64.6641 21.3499C63.9407 20.6577 63.3672 19.8243 62.9791 18.9013C62.2107 17.0213 62.2107 14.9149 62.9791 13.0349C63.3689 12.1066 63.9435 11.2673 64.6681 10.5683C65.3902 9.85986 66.2455 9.30144 67.1845 8.92521C69.0965 8.17271 71.2227 8.17271 73.1347 8.92521C74.0732 9.30187 74.928 9.86048 75.6497 10.5689C76.3715 11.2773 76.9459 12.1215 77.34 13.0528C77.7257 13.9776 77.9223 14.9701 77.9183 15.9721V15.9661ZM80.2872 23.1904V8.10767L89.5035 16.9771C89.7568 17.2283 90.01 17.4935 90.2673 17.7747C90.5245 18.0558 90.7957 18.3729 91.0788 18.7398V8.68194H93.2603V23.7567L83.8565 14.7278C83.6072 14.4845 83.364 14.2273 83.1307 13.9561C82.8931 13.6838 82.6694 13.3997 82.4607 13.1047V23.1904H80.2872ZM95.0888 19.4975H97.2503C97.6332 20.8734 98.5883 21.5154 100 21.5154C101.344 21.5154 102.243 20.7178 102.243 19.342C102.243 18.5085 101.549 17.7607 100.166 17.1087C99.9662 17.0129 99.8226 16.9392 99.7169 16.8973C98.1523 16.1316 97.1094 15.4397 96.5883 14.8215C96.0612 14.1857 95.7833 13.3799 95.8066 12.5543C95.7872 12.0272 95.8827 11.5021 96.0865 11.0155C96.2904 10.529 96.5977 10.0926 96.9871 9.73678C97.7701 9.01627 98.8003 8.65735 100.078 8.66001C101.125 8.66001 102.026 8.85941 102.724 9.25821C103.679 9.8285 104.433 11.0528 104.554 11.9302H102.361C101.998 11.0807 101.208 10.6421 100.253 10.6421C99.7179 10.6134 99.191 10.7854 98.7757 11.1246C98.5929 11.2875 98.4487 11.489 98.3535 11.7146C98.2583 11.9402 98.2146 12.1841 98.2254 12.4287C98.2254 13.2835 99.0283 14.0811 100.634 14.8215C100.756 14.8813 100.854 14.9272 100.923 14.9571C102.328 15.6072 103.294 16.2399 103.819 16.8554C104.354 17.5065 104.633 18.3303 104.604 19.1725C104.604 20.5191 104.18 21.5886 103.332 22.3808C102.483 23.1785 101.338 23.5773 99.8944 23.5773C98.686 23.5773 97.5155 23.2024 96.9173 22.7278C96.4116 22.3405 95.9886 21.8558 95.6732 21.3024C95.3578 20.749 95.1563 20.138 95.0808 19.5055L95.0888 19.4975ZM111.533 10.6839V23.1904H109.177V10.6839H105.32V8.68992H115.37V10.6839H111.533ZM116.85 23.1904V8.68194H124.949V10.676H119.208V14.8056H124.949V16.8754H119.208V21.0728H124.949V23.1904H116.85ZM127.36 23.1904V8.68194H129.717V23.1904H127.36ZM132.774 23.1904V8.10767L141.974 16.9771C142.227 17.2283 142.481 17.4935 142.738 17.7747C142.995 18.0558 143.264 18.3729 143.549 18.7398V8.68194H145.731V23.7567L136.327 14.7278C136.076 14.4845 135.833 14.2273 135.599 13.9561C135.362 13.6829 135.141 13.4018 134.929 13.1047V23.1904H132.774ZM44.9412 14.8155C45.4837 14.7926 45.9958 14.5589 46.3685 14.1641C46.7412 13.7693 46.9451 13.2446 46.9368 12.7017C46.9285 12.1588 46.7086 11.6407 46.324 11.2575C45.9394 10.8743 45.4203 10.6563 44.8774 10.65H42.9652V14.8155H44.9412ZM47.4796 15.5254C48.3563 15.835 49.0956 16.444 49.5673 17.2452C50.039 18.0464 50.2129 18.9883 50.0582 19.9051C49.9035 20.8219 49.4303 21.6547 48.7219 22.2567C48.0134 22.8588 47.1152 23.1916 46.1855 23.1964H40.6461V8.68194H45.9502C47.9442 8.68194 49.4477 10.3071 49.4477 12.2971C49.4487 12.9627 49.2658 13.6157 48.9192 14.1839C48.5727 14.7522 48.0758 15.2137 47.4836 15.5174L47.4796 15.5254ZM45.1047 21.2263H45.2304C45.8438 21.2263 46.4322 20.9826 46.8659 20.5488C47.2997 20.115 47.5434 19.5267 47.5434 18.9132C47.5434 18.2998 47.2997 17.7115 46.8659 17.2777C46.4322 16.8439 45.8438 16.6002 45.2304 16.6002H42.9552V21.2303L45.1047 21.2263ZM61.4816 23.2203H58.8056L54.365 16.662V23.1904H52.006V8.68194H56.4866C57.4918 8.66749 58.4647 9.03642 59.2075 9.7137C59.9504 10.391 60.4074 11.3258 60.4856 12.328C60.5638 13.3302 60.2574 14.3246 59.6286 15.1089C58.9999 15.8932 58.096 16.4087 57.1007 16.5503L61.4716 23.2223L61.4816 23.2203ZM56.2314 10.8654H54.3769V14.4068H56.2314C56.701 14.4068 57.1514 14.2202 57.4834 13.8881C57.8155 13.5561 58.0021 13.1057 58.0021 12.6361C58.0021 12.1665 57.8155 11.7161 57.4834 11.384C57.1514 11.0519 56.701 10.8654 56.2314 10.8654Z" fill="#004289"/>
<path fill-rule="evenodd" clip-rule="evenodd" d="M44.9093 29.3738C44.9093 29.336 44.8854 29.2303 44.8654 29.0568C44.8475 28.9152 44.8335 28.7956 44.8196 28.7019C44.7983 28.8159 44.7696 28.9285 44.7338 29.0389C44.6937 29.1557 44.6471 29.2701 44.5943 29.3818L43.3081 32L42.022 29.326C41.9681 29.2163 41.9223 29.1106 41.8824 29.0069C41.8425 28.9033 41.8106 28.8075 41.7807 28.7019C41.7807 28.8056 41.7687 28.9132 41.7568 29.0249C41.7448 29.1366 41.7189 29.2562 41.691 29.3818L41.1626 31.8006H40.4268L41.5893 26.6779L43.0389 29.7786C43.0629 29.8285 43.0967 29.9102 43.1426 30.0259C43.1885 30.1415 43.2443 30.2811 43.3081 30.4486C43.356 30.3064 43.4297 30.1269 43.5294 29.9102C43.5574 29.8524 43.5773 29.8085 43.5913 29.7766L45.007 26.6779L46.2034 31.8006H45.4637L44.9193 29.3738H44.9093ZM47.8724 31.8006V26.8853H50.6162V27.5653H48.67V28.7956H50.6162V29.4975H48.67V31.0927H50.6162V31.8066L47.8724 31.8006ZM53.3679 31.0787H54.0379C54.3169 31.0873 54.596 31.0632 54.8694 31.0069C55.0466 30.9602 55.2113 30.8751 55.352 30.7577C55.5381 30.5957 55.6813 30.3902 55.7687 30.1595C55.9549 29.6249 55.9549 29.043 55.7687 28.5084C55.6813 28.2777 55.5381 28.0722 55.352 27.9102C55.2066 27.7913 55.0362 27.7068 54.8535 27.663C54.5542 27.604 54.2491 27.5792 53.9442 27.5892H53.3659V31.0668L53.3679 31.0787ZM52.5703 31.8006V26.8853H53.6391C54.1347 26.8687 54.6306 26.9041 55.1187 26.991C55.3904 27.0562 55.6457 27.1771 55.8684 27.3459C56.1532 27.5631 56.376 27.8512 56.5145 28.1814C56.6674 28.5503 56.7428 28.9467 56.7358 29.3459C56.7434 29.7439 56.668 30.1391 56.5145 30.5064C56.3749 30.8361 56.1524 31.1239 55.8684 31.3419C55.6504 31.5087 55.4008 31.6295 55.1346 31.6969C54.7132 31.7797 54.2838 31.8145 53.8545 31.8006H52.5624H52.5703ZM58.7099 31.8006V26.8853H59.5075V31.8006H58.7099ZM65.6411 28.0817C65.4294 27.897 65.1872 27.7506 64.9253 27.649C64.6709 27.5508 64.4003 27.5015 64.1277 27.5035C63.8851 27.4939 63.6432 27.5348 63.4173 27.6237C63.1915 27.7127 62.9865 27.8476 62.8156 28.0199C62.4928 28.3858 62.3135 28.8563 62.3109 29.3443C62.3083 29.8323 62.4827 30.3046 62.8016 30.6739C62.9605 30.8429 63.1533 30.9763 63.3674 31.0653C63.5816 31.1543 63.8121 31.197 64.0439 31.1904C64.3278 31.1914 64.6092 31.1387 64.8734 31.0349C65.1507 30.9245 65.407 30.7673 65.6312 30.5703V31.4716C65.4186 31.6263 65.1813 31.7437 64.9293 31.8185C64.3151 31.9917 63.6619 31.9665 63.0629 31.7467C62.748 31.626 62.4621 31.4405 62.2234 31.2024C61.9827 30.968 61.7944 30.6853 61.671 30.3729C61.4132 29.7187 61.4132 28.9911 61.671 28.337C61.7972 28.0233 61.9874 27.7395 62.2294 27.5035C62.4685 27.2649 62.7543 27.0783 63.0688 26.9551C63.3954 26.8278 63.7433 26.7642 64.0938 26.7677C64.3738 26.7666 64.6523 26.8089 64.9193 26.8933C65.1906 26.9821 65.4472 27.1104 65.681 27.2742L65.6371 28.0817H65.6411ZM67.683 31.8006V26.8853H68.4806V31.8006H67.683ZM70.674 31.8006V26.6919L73.7967 29.6969C73.8824 29.7806 73.9681 29.8704 74.0559 29.9681C74.1436 30.0658 74.2334 30.1675 74.3311 30.2951V26.8853H75.0708V31.992L71.8804 28.9332C71.7935 28.8505 71.7109 28.7633 71.6331 28.6719C71.5525 28.5795 71.4767 28.483 71.4058 28.3828V31.8006H70.674ZM78.2732 29.8704H79.6411L79.1386 28.7497C79.1107 28.6779 79.0788 28.5942 79.0489 28.5025C79.019 28.4107 78.9851 28.3031 78.9532 28.1914C78.9273 28.2991 78.8994 28.3908 78.8675 28.4925C78.8355 28.5942 78.8076 28.67 78.7777 28.7497L78.2732 29.8704ZM80.4826 31.8006L79.9243 30.5344H77.9661L77.3959 31.8006H76.5703L78.9512 26.6919L81.3281 31.8006H80.4826ZM89.8545 31.0787H90.5285C90.8068 31.0875 91.0853 31.0634 91.358 31.0069C91.5353 30.9606 91.7001 30.8755 91.8405 30.7577C92.0273 30.5963 92.1706 30.3906 92.2573 30.1595C92.446 29.6253 92.446 29.0426 92.2573 28.5084C92.1706 28.2773 92.0273 28.0716 91.8405 27.9102C91.6956 27.7906 91.525 27.706 91.342 27.663C91.0427 27.6038 90.7377 27.579 90.4328 27.5892H89.8565V31.0668L89.8545 31.0787ZM89.0569 31.8006V26.8853H90.1297C90.6252 26.8689 91.1211 26.9043 91.6092 26.991C91.881 27.0562 92.1363 27.1771 92.359 27.3459C92.6438 27.5631 92.8665 27.8512 93.005 28.1814C93.158 28.5503 93.2333 28.9467 93.2264 29.3459C93.2339 29.7439 93.1585 30.1391 93.005 30.5064C92.8655 30.8361 92.6429 31.1239 92.359 31.3419C92.141 31.5087 91.8913 31.6295 91.6252 31.6969C91.2031 31.7797 90.7729 31.8145 90.343 31.8006H89.0509H89.0569ZM95.1985 31.8006V26.8853H95.9961V31.8006H95.1985ZM99.2204 29.8704H100.59L100.088 28.7497C100.058 28.6779 100.028 28.5942 99.9961 28.5025C99.9642 28.4107 99.9343 28.3031 99.9023 28.1914C99.8744 28.2991 99.8485 28.3908 99.8166 28.4925C99.7847 28.5942 99.7568 28.67 99.7249 28.7497L99.2204 29.8704ZM101.43 31.8006L100.873 30.5344H98.9253L98.355 31.8006H97.5075L99.8884 26.6919L102.265 31.8006H101.43ZM106.377 29.2841H108.325C108.325 29.316 108.325 29.3639 108.325 29.4237C108.333 29.5832 108.337 29.6909 108.337 29.7467C108.337 30.4393 108.138 30.9764 107.739 31.3579C107.34 31.7394 106.782 31.9308 106.064 31.9322C105.697 31.9381 105.331 31.878 104.985 31.7547C104.673 31.6372 104.39 31.4535 104.156 31.2163C103.922 30.9774 103.74 30.693 103.621 30.3808C103.495 30.0533 103.431 29.705 103.434 29.3539C103.433 29.0019 103.5 28.653 103.633 28.327C103.759 28.0127 103.951 27.7292 104.195 27.4955C104.436 27.2602 104.722 27.0775 105.037 26.9591C105.368 26.835 105.718 26.7722 106.072 26.7737C106.43 26.7678 106.784 26.8407 107.111 26.987C107.429 27.1383 107.708 27.3599 107.928 27.6351L107.344 28.0737C107.19 27.892 106.999 27.7458 106.784 27.645C106.563 27.5487 106.325 27.5004 106.084 27.5035C105.843 27.4951 105.603 27.5362 105.379 27.6244C105.154 27.7125 104.95 27.8458 104.78 28.0159C104.611 28.1924 104.479 28.4011 104.392 28.6296C104.306 28.8581 104.266 29.1017 104.275 29.3459C104.265 29.5935 104.304 29.8407 104.391 30.0728C104.478 30.305 104.61 30.5175 104.78 30.6979C104.95 30.8706 105.155 31.0059 105.381 31.0951C105.607 31.1844 105.849 31.2256 106.092 31.2163C106.477 31.2385 106.857 31.1264 107.169 30.8993C107.299 30.7956 107.403 30.6627 107.472 30.5113C107.541 30.3599 107.574 30.1943 107.567 30.0279V29.9581H106.385V29.2841H106.377ZM110.215 31.8006V26.6919L113.338 29.6969C113.424 29.7806 113.51 29.8704 113.597 29.9681C113.685 30.0658 113.775 30.1675 113.87 30.2951V26.8853H114.61V31.992L111.42 28.9332C111.332 28.851 111.25 28.7638 111.173 28.6719C111.092 28.5795 111.016 28.483 110.945 28.3828V31.8006H110.215ZM120.983 29.3539C120.984 29.1108 120.938 28.8698 120.848 28.644C120.754 28.4207 120.619 28.2176 120.449 28.0458C120.287 27.874 120.09 27.7381 119.872 27.647C119.543 27.5072 119.18 27.4704 118.829 27.5416C118.479 27.6128 118.159 27.7887 117.91 28.0458C117.739 28.2165 117.603 28.4199 117.512 28.644C117.422 28.8706 117.376 29.1122 117.378 29.3559C117.377 29.5976 117.422 29.8373 117.512 30.0618C117.603 30.2857 117.739 30.4891 117.91 30.66C118.075 30.8317 118.273 30.9675 118.493 31.0588C118.821 31.1981 119.183 31.2346 119.533 31.1634C119.882 31.0922 120.201 30.9167 120.449 30.66C120.62 30.4887 120.755 30.2854 120.848 30.0618C120.938 29.8381 120.984 29.5991 120.983 29.3579V29.3539ZM121.817 29.3539C121.818 29.6963 121.75 30.0354 121.617 30.3509C121.485 30.665 121.289 30.9487 121.043 31.1844C120.797 31.4245 120.506 31.6148 120.187 31.7447C119.871 31.8757 119.533 31.9435 119.19 31.9441C118.844 31.944 118.5 31.8763 118.18 31.7447C117.862 31.6159 117.572 31.4255 117.328 31.1844C117.083 30.9498 116.888 30.6675 116.756 30.3549C116.496 29.7156 116.496 29.0002 116.756 28.3609C116.888 28.0464 117.083 27.7621 117.328 27.5254C117.572 27.2855 117.862 27.0965 118.18 26.9691C118.501 26.8383 118.844 26.7706 119.19 26.7697C119.533 26.7712 119.871 26.8389 120.187 26.9691C120.668 27.1575 121.08 27.487 121.369 27.9141C121.658 28.3413 121.812 28.846 121.809 29.3619L121.817 29.3539ZM118.718 26.4028L119.356 25.4895H120.112L119.131 26.4028H118.718ZM123.49 30.8175L124.126 30.5224C124.173 30.7236 124.292 30.9011 124.459 31.0229C124.641 31.1445 124.856 31.2053 125.075 31.1964C125.283 31.2075 125.486 31.1358 125.641 30.997C125.71 30.928 125.763 30.8453 125.798 30.7542C125.832 30.6631 125.847 30.5657 125.841 30.4686C125.841 30.1794 125.603 29.9222 125.123 29.6969C125.055 29.663 125.005 29.6371 124.969 29.6231C124.566 29.4547 124.198 29.2111 123.886 28.9053C123.704 28.6854 123.608 28.407 123.615 28.1216C123.608 27.94 123.639 27.7588 123.708 27.5905C123.777 27.4223 123.881 27.2708 124.014 27.1465C124.309 26.889 124.692 26.7554 125.083 26.7737C125.399 26.7627 125.713 26.8356 125.992 26.985C126.229 27.1153 126.41 27.3282 126.501 27.5832L125.876 27.9063C125.795 27.7701 125.684 27.6541 125.551 27.5673C125.431 27.4954 125.293 27.4582 125.153 27.4596C124.967 27.4498 124.784 27.5095 124.64 27.6271C124.577 27.6834 124.527 27.753 124.494 27.831C124.462 27.909 124.447 27.9933 124.451 28.0777C124.451 28.3728 124.729 28.648 125.284 28.9033L125.384 28.9491C125.757 29.0992 126.096 29.323 126.381 29.6071C126.566 29.8311 126.663 30.1145 126.654 30.4047C126.664 30.6103 126.63 30.8156 126.554 31.0068C126.478 31.198 126.362 31.3708 126.213 31.5134C125.884 31.8029 125.455 31.9512 125.017 31.9262C124.652 31.9422 124.291 31.8408 123.988 31.6371C123.716 31.4378 123.528 31.143 123.464 30.8115L123.49 30.8175ZM130.172 27.5653V31.8006H129.374V27.5653H128.068V26.8853H131.472V27.5653H130.172ZM133.133 31.8006V26.8853H133.93V31.8006H133.133ZM140.064 28.0817C139.852 27.897 139.61 27.7506 139.348 27.649C139.093 27.5514 138.823 27.502 138.55 27.5035C138.308 27.4942 138.067 27.5353 137.841 27.6242C137.616 27.7131 137.411 27.8478 137.24 28.0199C136.916 28.3853 136.736 28.856 136.734 29.3443C136.731 29.8326 136.906 30.3052 137.226 30.6739C137.385 30.8429 137.577 30.9762 137.791 31.0653C138.005 31.1543 138.235 31.1969 138.467 31.1904C138.751 31.1917 139.033 31.1389 139.298 31.0349C139.575 30.9246 139.831 30.7674 140.054 30.5703V31.4716C139.842 31.6259 139.605 31.7432 139.354 31.8185C138.74 31.9917 138.087 31.9665 137.488 31.7467C137.172 31.6267 136.885 31.4412 136.646 31.2024C136.407 30.967 136.219 30.6845 136.094 30.3729C135.838 29.7182 135.838 28.9916 136.094 28.337C136.222 28.025 136.412 27.7421 136.652 27.5047C136.892 27.2674 137.176 27.0805 137.49 26.9551C138.082 26.7285 138.734 26.7067 139.34 26.8933C139.611 26.9825 139.868 27.1108 140.102 27.2742L140.058 28.0817H140.064ZM143.129 29.8763H144.499L143.996 28.7557C143.966 28.6839 143.936 28.6002 143.904 28.5084C143.872 28.4167 143.843 28.309 143.811 28.1974C143.785 28.305 143.755 28.3968 143.725 28.4985C143.695 28.6002 143.665 28.6759 143.633 28.7557L143.129 29.8763ZM145.338 31.8066L144.78 30.5403H142.834L142.263 31.8066H141.424L143.805 26.6979L146.182 31.8066H145.338Z" fill="#7C7C7B"/>
</svg>
