<svg width="88" height="86" viewBox="0 0 88 86" fill="none" xmlns="http://www.w3.org/2000/svg">
<path d="M87.2092 78.9438L80.523 65.6414C79.6848 63.9743 79.2468 62.1176 79.2468 60.2331V50.8312H79.2204H72.6764L70.7646 60.7379C70.7646 62.6231 66.1714 66.1363 66.1714 66.1363L66.1066 85.9081H71.9854H80.9478H83.2107C86.6152 85.9075 88.7982 82.1055 87.2092 78.9438Z" fill="#A7E1FF"/>
<path d="M80.9472 85.9076H83.2101C86.6152 85.9076 88.7982 82.1056 87.2092 78.9439L83.5027 71.5705H64.78V85.9076H71.9848H80.9472Z" fill="#0C42F9"/>
<path d="M70.1436 41.1897C68.6251 38.2249 66.0853 35.9809 63.0439 34.9165L57.4765 32.9679C56.6585 32.6818 55.9153 32.2265 55.2841 31.6398C54.5717 30.9764 35.6325 30.2693 35.6325 30.2693L27.56 32.5609C24.0479 33.5579 20.9228 35.6876 18.6253 38.6497L1.39465 61.6044L22.7019 57.0822V85.9077H44.1349H47.5362H68.2444L68.3092 66.1359L73.5902 60.388L70.1436 41.1897Z" fill="#A7E1FF"/>
<path d="M74.5473 85.9074V49.3266C74.5473 43.095 70.7445 37.5644 65.1117 35.6033L57.0039 32.7805V85.908H68.2443H74.5473V85.9074Z" fill="#CEB189"/>
<path d="M74.5475 71.5612H65.5769V85.9076H74.5475V71.5612Z" fill="#FC503C"/>
<path d="M35.5741 30.2858C37.6444 33.992 41.4781 36.481 45.8661 36.481C49.6954 36.481 53.103 34.5853 55.2841 31.639C55.2766 31.6324 55.2596 31.6099 55.2287 31.5789C52.8488 29.1889 52.7091 26.0041 53.9255 23.1866L54.6278 21.5598L46.1518 17.1308L40.6222 21.1766C39.9646 27.0289 39.0043 29.2206 35.6326 30.2693L35.5741 30.2858Z" fill="#D04837"/>
<path d="M22.7019 54.1491H10.9631V65.1566C6.31011 66.0368 2.77979 70.3099 2.77979 75.4492C2.77979 81.2269 7.20182 85.8879 12.7044 85.9077C18.222 85.9282 22.7007 77.3588 22.7007 71.5706L22.7019 54.1491Z" fill="#0C42F9"/>
<path d="M33.9422 85.9077V30.7663L27.6134 32.1056C23.2442 33.03 19.3615 35.636 16.7279 39.4116L1.77905 60.6384L22.7011 57.0822V85.9077H33.9422Z" fill="#CEB189"/>
<path d="M13.2348 85.9075H22.7019V74.5128" fill="#A7E1FF"/>
<path d="M3.48766 71.5705C3.03142 72.7697 2.78033 74.0787 2.78033 75.4491C2.78033 81.2268 7.20237 85.8877 12.7049 85.9076C18.2225 85.9281 22.7012 81.2373 22.7012 75.4491C22.7012 74.0787 22.7012 71.5705 22.7012 71.5705H3.48766Z" fill="#A7E1FF"/>
<path d="M24.034 83.1805C23.2984 83.1805 22.7018 82.5541 22.7018 81.7817V71.571H25.3668V81.7817C25.3662 82.5541 24.7696 83.1805 24.034 83.1805Z" fill="#D04837"/>
<path d="M66.9091 83.1595C66.1735 83.1595 65.5769 82.5331 65.5769 81.7607V71.5705H68.242V81.7607C68.242 82.5331 67.6454 83.1595 66.9091 83.1595Z" fill="#D04837"/>
<path d="M58.3367 83.1805C57.601 83.1805 57.0045 82.5541 57.0045 81.7817V71.571H59.6695V81.7817C59.6689 82.5541 59.0723 83.1805 58.3367 83.1805Z" fill="#D04837"/>
<path d="M49.7606 83.1805C49.025 83.1805 48.4284 82.5541 48.4284 81.7817V71.571H51.0935V81.7817C51.0929 82.5541 50.4969 83.1805 49.7606 83.1805Z" fill="#D04837"/>
<path d="M41.1855 83.1805C40.4498 83.1805 39.8533 82.5541 39.8533 81.7817V71.571H42.5183V81.7817C42.5177 82.5541 41.9211 83.1805 41.1855 83.1805Z" fill="#D04837"/>
<path d="M32.6095 83.1805C31.8738 83.1805 31.2773 82.5541 31.2773 81.7817V71.571H33.9423V81.7817C33.9423 82.5541 33.3457 83.1805 32.6095 83.1805Z" fill="#D04837"/>
<path d="M68.2449 83.1807H22.7018V85.9083H68.2449V83.1807Z" fill="#0C42F9"/>
<path d="M22.7018 71.5707V66.5879H25.3662V71.5707" fill="#FC503C"/>
<path d="M31.2773 71.5707V66.5879H33.9423V71.5707" fill="#FC503C"/>
<path d="M39.8527 71.5707V66.5879H42.5178V71.5707" fill="#FC503C"/>
<path d="M48.4284 71.5707V66.5879H51.0929V71.5707" fill="#FC503C"/>
<path d="M65.5769 71.5707V66.5879H68.242V71.5707" fill="#FC503C"/>
<path d="M57.0039 76.0121V71.5705H59.6689V76.0121" fill="#D04837"/>
<path d="M65.5769 76.0121V71.5705H68.242V76.0121" fill="#D04837"/>
<path d="M58.3805 14.3972L58.3774 14.3986C57.8607 14.5941 57.609 15.208 57.8293 15.7359C58.0986 16.3828 57.6606 17.1103 56.9885 17.1321H56.9879C56.4391 17.15 56.0188 17.6508 56.0723 18.225V18.2276C56.1371 18.9294 55.5065 19.4785 54.8615 19.2809L54.8603 19.2802C54.3329 19.1183 53.7848 19.46 53.6671 20.0236V20.0249C53.523 20.7134 52.7622 21.0319 52.2065 20.6354L52.2046 20.6341C51.7503 20.3104 51.1298 20.457 50.8523 20.9546V20.9552C50.5125 21.5645 49.6938 21.6193 49.2828 21.061C48.9468 20.605 48.3131 20.5423 47.9022 20.9249L47.8997 20.9275C47.3975 21.3953 46.6046 21.1825 46.3768 20.5191L46.3755 20.5158C46.1892 19.9734 45.6046 19.7091 45.1018 19.9403C44.4857 20.2231 43.7929 19.7632 43.7721 19.0576V19.0569C43.7551 18.4807 43.2781 18.0393 42.7313 18.0955H42.7288C42.0604 18.1635 41.5375 17.5015 41.7257 16.8242L41.7263 16.8229C41.8805 16.2692 41.5551 15.6936 41.0183 15.5701H41.0171C40.3614 15.4188 40.058 14.6199 40.4356 14.0365L40.4369 14.0345C40.7452 13.5574 40.6055 12.9059 40.1317 12.6145H40.131C39.5508 12.2577 39.4986 11.3981 40.0304 10.9666C40.4646 10.6137 40.5244 9.94836 40.16 9.51689L40.1575 9.51424C39.7119 8.98696 39.9146 8.15441 40.5464 7.91521L40.5495 7.91389C41.0662 7.71831 41.3179 7.10447 41.0976 6.57652C40.8283 5.92964 41.2663 5.20215 41.9384 5.18034H41.939C42.4877 5.1625 42.9081 4.66165 42.8546 4.08745V4.08481C42.7898 3.38308 43.4204 2.83399 44.0654 3.03156L44.0666 3.03222C44.594 3.19411 45.1421 2.8525 45.2598 2.28887V2.28755C45.4039 1.59904 46.1647 1.28056 46.7204 1.67701L46.7222 1.67833C47.1766 2.0021 47.7971 1.85541 48.0746 1.35786V1.3572C48.4144 0.747985 49.2331 0.693143 49.644 1.25148C49.9801 1.7074 50.6138 1.77018 51.0247 1.3876L51.0272 1.38495C51.5294 0.917139 52.3223 1.1299 52.5501 1.7933L52.5514 1.79661C52.7377 2.33909 53.3223 2.60339 53.8251 2.37213C54.4411 2.08932 55.134 2.54921 55.1548 3.2549V3.25556C55.1718 3.83174 55.6488 4.27312 56.1956 4.21696H56.1981C56.8664 4.1489 57.3894 4.81098 57.2012 5.48825L57.2006 5.48958C57.0464 6.04329 57.3718 6.61881 57.9085 6.74237H57.9098C58.5655 6.89368 58.8688 7.69254 58.4913 8.27599L58.49 8.27797C58.1817 8.75504 58.3214 9.40654 58.7952 9.69794H58.7958C59.3761 10.0547 59.4283 10.9144 58.8965 11.3459C58.4623 11.6987 58.4025 12.3641 58.7669 12.7956L58.7694 12.7982C59.2143 13.3262 59.0117 14.1587 58.3805 14.3972Z" fill="#0C42F9"/>
<path d="M57.0673 17.1308C56.3417 17.002 56.443 16.1338 56.7224 15.7016L56.7237 15.6996C57.1013 15.1162 56.798 14.3173 56.1422 14.166H56.141C55.6042 14.0425 55.2795 13.4676 55.433 12.9132L55.4337 12.9119C55.6218 12.2346 55.0989 11.5726 54.4306 11.6406H54.428C53.8818 11.6961 53.4042 11.2554 53.3872 10.6792V10.6786C53.3664 9.97287 52.6736 9.51298 52.0575 9.79578C51.5541 10.027 50.9701 9.76275 50.7838 9.22027L50.7826 9.21696C50.5554 8.55356 49.7618 8.34146 49.2597 8.80861L49.2572 8.81126C48.8462 9.19384 48.2125 9.13172 47.8765 8.67514C47.4649 8.1168 46.6469 8.17231 46.307 8.78086V8.78152C46.0295 9.27907 45.409 9.42576 44.9547 9.10199L44.9528 9.10067C44.3971 8.70421 43.6363 9.0227 43.4922 9.71121V9.71253C43.3745 10.2762 42.8271 10.6171 42.2991 10.4559L42.2978 10.4552C41.6528 10.2577 41.0222 10.8067 41.0871 11.5085V11.5111C41.0871 12.8016 40.0361 12.5663 40.0361 12.5663C39.2797 12.3635 38.5208 12.8016 38.3012 13.7035C38.0872 14.5836 38.2779 15.4889 38.7367 16.2183C39.1167 16.8229 40.0494 17.6429 40.0494 17.6429C40.4515 22.8543 42.5829 27.0111 45.4109 27.769C48.1729 28.5091 51.9134 25.7484 54.6275 21.5599C54.8182 21.6075 55.6231 21.9907 57.19 20.5622C57.6022 20.1366 57.9244 19.6027 58.0704 19.0014C58.29 18.1002 57.8369 17.2676 57.0673 17.1308Z" fill="#FC503C"/>
<path d="M41.0873 11.5118V11.5092C41.0225 10.8075 41.6531 10.2584 42.2981 10.456L42.2993 10.4566C42.8267 10.6185 43.3748 10.2769 43.4925 9.71326V9.71194C43.6366 9.02277 44.3974 8.70495 44.9531 9.1014L44.955 9.10272C45.4093 9.4265 46.0298 9.27981 46.3073 8.78226V8.7816C46.6471 8.17238 47.4658 8.11754 47.8768 8.67588C48.2128 9.1318 48.8465 9.19457 49.2574 8.81199L49.2599 8.80935C49.7621 8.34153 50.555 8.5543 50.7828 9.2177L50.7841 9.221C50.9704 9.76348 51.555 10.0278 52.0578 9.79652C52.6739 9.51372 53.3667 9.9736 53.3875 10.6793V10.68C53.4045 11.2561 53.8815 11.6975 54.4283 11.6414H54.4308C55.0991 11.5733 55.6221 12.2354 55.4339 12.9126L55.4333 12.914C55.2791 13.4677 55.6045 14.0432 56.1412 14.1668H56.1425C56.7989 14.3181 57.1015 15.1169 56.724 15.7004L56.7227 15.7024C56.4691 16.0942 56.3621 16.8455 56.887 17.0774C57.1821 16.2878 57.4338 15.4784 57.6333 14.6577C58.8441 9.6756 56.0286 4.61949 51.3435 3.36405C46.6591 2.10861 41.8796 5.12959 40.6688 10.1117C40.4681 10.9376 40.3146 11.7643 40.2038 12.5836C40.5002 12.5882 41.0873 12.4765 41.0873 11.5118Z" fill="#0C42F9"/>
<path d="M57.0675 17.1305C57.0436 17.1239 57.0191 17.1193 56.9945 17.114C57.0184 17.1206 57.0424 17.1259 57.0675 17.1305Z" fill="#0C42F9"/>
<path d="M47.9678 21.9767C47.4656 21.8234 47.2478 21.9741 46.801 21.8379C46.3536 21.7018 46.251 21.5043 45.8609 21.3622C45.1265 21.0939 44.8502 21.1726 44.1297 21.2538C44.1297 21.2538 44.6092 23.3993 46.2875 23.9101C47.9652 24.4202 49.463 22.8767 49.463 22.8767C48.9897 22.3454 48.3768 22.1016 47.9678 21.9767Z" fill="#0C42F9"/>
<path d="M33.9424 30.7663L27.6136 32.1056L31.1653 39.7109C32.8537 43.3259 32.1948 47.6658 29.5197 50.5506C28.3744 51.7863 28.0818 53.6397 28.7866 55.1964L33.9424 66.5879V30.7663Z" fill="#B39A78"/>
<path d="M61.4266 52.5373C58.7514 49.6524 58.0926 45.3132 59.781 41.6975L62.9746 34.8587L57.0039 32.78V68.5745L62.1597 57.183C62.8651 55.6263 62.5725 53.7729 61.4266 52.5373Z" fill="#B39A78"/>
<path d="M41.2175 61.9022H41.1029C40.3673 61.9022 39.7707 61.2758 39.7707 60.5034V43.3085H42.5497V60.5027C42.5497 61.2758 41.9531 61.9022 41.2175 61.9022Z" fill="#FC503C"/>
<path d="M44.0618 43.7567H38.3057C38.0798 43.7567 37.8966 43.5644 37.8966 43.3272V43.2902C37.8966 43.053 38.0798 42.8607 38.3057 42.8607H44.0618C44.2877 42.8607 44.4708 43.053 44.4708 43.2902V43.3272C44.4708 43.5644 44.2877 43.7567 44.0618 43.7567Z" fill="#CEB189"/>
<path d="M41.0999 62.8547L40.6009 64.7478C40.4983 65.1363 40.7764 65.5202 41.1603 65.5202C41.5442 65.5202 41.8223 65.1363 41.7197 64.7478L41.2207 62.8547C41.2037 62.7906 41.1169 62.7906 41.0999 62.8547Z" fill="#D04837"/>
<path d="M68.2726 71.5705H22.7018V74.2981H68.2726V71.5705Z" fill="#B39A78"/>
<path d="M57.0039 71.5707V66.5879H59.6689V71.5707" fill="#FC503C"/>
<path d="M48.6 14.7916C48.5635 14.7823 48.5264 14.779 48.4887 14.783C47.9097 14.8365 45.9671 15.0902 43.9691 16.1838C42.4802 16.9985 41.4123 18.4654 41.019 20.1787C40.8598 20.8725 40.8144 21.5901 40.8906 22.2998C41.1027 24.2741 41.9453 27.9717 45.2661 28.9252L45.2654 28.9285C45.2931 28.9357 45.3208 28.941 45.3485 28.9476C45.3762 28.9549 45.4026 28.9635 45.4309 28.9701L45.4316 28.9668C48.8008 29.7082 51.1562 26.82 52.2021 25.1648C52.5778 24.5701 52.8497 23.91 53.0089 23.2162C53.4028 21.5029 53.0888 19.6865 52.1178 18.2487C50.8145 16.3186 49.196 15.1629 48.7033 14.8378C48.6712 14.816 48.6365 14.8008 48.6 14.7916Z" fill="#A7E1FF"/>
<path d="M42.6711 18.8569C42.6233 18.8569 42.5773 18.8278 42.5559 18.7789L39.9198 12.6213C39.8915 12.5546 39.9198 12.4766 39.9828 12.4469C40.0463 12.4172 40.1206 12.4469 40.1489 12.513L42.785 18.6706C42.8133 18.7373 42.785 18.8153 42.7221 18.845C42.7057 18.8529 42.6881 18.8569 42.6711 18.8569Z" fill="#A7E1FF"/>
<path d="M52.1688 21.2621C52.1323 21.2621 52.0965 21.2456 52.0713 21.2139C52.0272 21.1577 52.0354 21.0744 52.0889 21.0282L56.8054 16.9751C56.8589 16.9289 56.9389 16.9374 56.9823 16.9936C57.0263 17.0498 57.0182 17.133 56.9647 17.1793L52.2481 21.2324C52.2255 21.2528 52.1971 21.2621 52.1688 21.2621Z" fill="#A7E1FF"/>
<path d="M51.0897 18.3047C51.0519 18.3047 51.0141 18.2869 50.9896 18.2525C50.3119 17.3162 49.5787 16.6185 49.0835 16.1976C48.6549 15.8341 48.0999 15.6934 47.5606 15.8117C46.937 15.9485 45.9811 16.2187 44.9717 16.7282C44.9094 16.7599 44.8339 16.7321 44.8037 16.666C44.7735 16.6 44.7999 16.5213 44.8628 16.4896C45.8949 15.9689 46.8715 15.6927 47.509 15.5527C48.1226 15.4179 48.7537 15.5778 49.2414 15.9914C49.748 16.4209 50.4975 17.1345 51.1897 18.092C51.2319 18.1501 51.2212 18.2327 51.1658 18.277C51.1425 18.2961 51.1161 18.3047 51.0897 18.3047Z" fill="#0C42F9"/>
<path d="M44.1116 48.3515C44.1116 47.8969 43.8958 47.4965 43.5673 47.2533C43.8964 47.0101 44.1116 46.6097 44.1116 46.1551C44.1116 45.4138 43.539 44.8131 42.8335 44.8131L39.2566 44.792C38.92 44.792 38.7538 44.3618 38.9955 44.1154L40.2283 42.8606H42.4516C42.9682 42.8606 43.3873 42.4205 43.3873 41.8781C43.3873 41.3356 42.9682 40.8955 42.4516 40.8955H39.8356C39.3743 40.8955 38.9225 41.0362 38.5355 41.3012C38.5355 41.3012 34.9447 44.4603 33.9807 45.7395C29.9211 51.124 7.43649 52.6054 1.77916 60.6383C-0.284921 63.5694 -0.629144 67.4064 1.92201 69.8783C3.81743 71.7145 6.60016 72.0753 8.89016 70.8284C21.133 64.1634 28.531 54.7522 36.9893 54.7522C39.5524 55.0886 41.1596 54.5084 42.0608 53.9567C42.6473 53.5972 43.0047 52.9352 43.0047 52.2222V52.0504L43.0028 51.9592C43.5459 51.8046 43.9461 51.2846 43.9461 50.6648C43.9461 50.2056 43.7259 49.8005 43.3911 49.5587C43.8171 49.34 44.1116 48.8827 44.1116 48.3515Z" fill="#FC503C"/>
<path d="M44.1116 46.1551C44.1116 45.4138 43.5389 44.8131 42.8335 44.8131L39.2566 44.792C38.9199 44.792 38.7538 44.3618 38.9954 44.1154L40.2282 42.8606H42.4515C42.9681 42.8606 43.3872 42.4205 43.3872 41.8781C43.3872 41.3356 42.9681 40.8955 42.4515 40.8955H39.8355C39.3742 40.8955 38.9224 41.0362 38.5354 41.3012C38.5354 41.3012 34.9447 44.4603 33.9806 45.7395C32.3753 47.8685 27.889 49.3876 22.7018 50.9423V61.4992C27.8267 57.7184 32.2412 54.7522 36.9899 54.7522C39.553 55.0886 41.1602 54.5084 42.0613 53.9567C42.6478 53.5972 43.0053 52.9352 43.0053 52.2222V52.0504L43.0034 51.9592C43.5464 51.8046 43.9467 51.2846 43.9467 50.6648C43.9467 50.2056 43.7264 49.8005 43.3916 49.5587C43.8177 49.3406 44.1116 48.8834 44.1116 48.3528C44.1116 47.8982 43.8957 47.4978 43.5672 47.2546C43.8957 47.0108 44.1116 46.6097 44.1116 46.1551Z" fill="#0C42F9"/>
</svg>
