<svg width="85" height="93" viewBox="0 0 85 93" fill="none" xmlns="http://www.w3.org/2000/svg">
<path d="M84.881 83.1643H76.6667V92.3643H84.881V83.1643Z" fill="#FC503C"/>
<path d="M82.7394 10.1394H2.68923C1.50645 10.1394 0.547623 11.1565 0.547623 12.4113V68.8175C0.547623 70.0722 1.50645 71.0894 2.68923 71.0894H82.7394C83.9221 71.0894 84.881 70.0722 84.881 68.8175V12.4113C84.881 11.1565 83.9221 10.1394 82.7394 10.1394Z" fill="white"/>
<path d="M50.2999 29.9214V33.5258C50.3 34.6677 50.6187 35.7838 51.2156 36.732C51.8124 37.6802 52.6603 38.4176 53.6513 38.8502L60.9384 42.0303C64.1531 43.4337 66.8865 45.8552 68.7696 48.968L82.1428 71.0893H8.7619L18.0164 44.467C18.7514 43.1012 19.7359 41.9066 20.9117 40.9539C22.0875 40.0012 23.4305 39.3098 24.8614 38.9206L32.6274 36.8083C33.6121 36.5401 34.5062 35.9819 35.2075 35.1975C35.9087 34.4131 36.3889 33.4341 36.5932 32.3724L38.0274 23.3643L50.2999 29.9214Z" fill="#D04837"/>
<path d="M44.9048 83.1645V92.3645H77.7619V83.1645H44.9048Z" fill="#02103F"/>
<path d="M59.1429 83.1643H44.9048V92.3643H59.1429V83.1643Z" fill="#0C42F9"/>
<path d="M44.7917 83.7681V57.2894H40.6319V83.7681C40.6319 84.8704 40.2216 85.9275 39.4914 86.707C38.7611 87.4864 37.7707 87.9243 36.738 87.9243H28.3652C27.8137 87.9243 27.2848 88.1582 26.8948 88.5744C26.5048 88.9907 26.2857 89.5552 26.2857 90.1439C26.2857 90.7327 26.5048 91.2973 26.8947 91.7137C27.2847 92.1301 27.8136 92.3642 28.3652 92.3644H57.0633C57.6149 92.3642 58.1439 92.1301 58.5338 91.7137C58.9238 91.2973 59.1428 90.7327 59.1428 90.1439C59.1428 89.5552 58.9238 88.9907 58.5338 88.5744C58.1438 88.1582 57.6149 87.9243 57.0633 87.9243H48.6856C47.6529 87.9243 46.6625 87.4864 45.9322 86.707C45.202 85.9275 44.7917 84.8704 44.7917 83.7681Z" fill="#CEB189"/>
<path d="M82.1429 71.0869L68.7618 48.9599C66.8784 45.8462 64.1442 43.424 60.9285 42.0205L53.8458 38.9297L45.1079 57.0387L34.2633 36.0145C33.7573 36.3722 33.1986 36.6368 32.6105 36.7973L24.8424 38.9128C23.4111 39.302 22.0677 39.9936 20.8916 40.9465C19.7155 41.8995 18.7307 43.0944 17.9955 44.4606L8.21429 71.0895L82.1429 71.0869Z" fill="#0C42F9"/>
<path d="M34.1267 36.0145C33.6238 36.3722 33.0686 36.6368 32.4841 36.7973L24.7636 38.913C23.3412 39.3023 22.0059 39.9939 20.8371 40.9469C19.6682 41.8999 18.6895 43.0949 17.9588 44.4612L8.7619 71.0895H44.9048V57.0403L34.1267 36.0145Z" fill="#02103F"/>
<path d="M29.5714 37.7042L33.3133 40.1346C33.6353 40.3442 33.9149 40.6255 34.1344 40.9606C34.3538 41.2957 34.5085 41.6775 34.5887 42.082C34.6689 42.4865 34.6729 42.9051 34.6004 43.3114C34.5279 43.7177 34.3805 44.103 34.1674 44.4432C33.7725 45.076 33.6114 45.8527 33.7173 46.6132C33.8232 47.3738 34.1881 48.0604 34.7368 48.5316L44.9048 57.2895L34.3528 36.0145C33.8605 36.3765 33.3169 36.6442 32.7447 36.8066L29.5714 37.7042Z" fill="#0C42F9"/>
<path d="M0.547623 12.9917V68.2371C0.547623 68.9932 0.830658 69.7185 1.33451 70.2533C1.83837 70.7882 2.52181 71.0889 3.23459 71.0894H82.1881C82.5416 71.09 82.8916 71.0166 83.2183 70.8735C83.545 70.7304 83.8419 70.5204 84.092 70.2555C84.3421 69.9906 84.5405 69.676 84.6759 69.3296C84.8113 68.9833 84.881 68.612 84.881 68.2371V12.9917C84.881 12.2352 84.5977 11.5097 84.0935 10.9748C83.5892 10.4399 82.9054 10.1394 82.1923 10.1394H3.23459C2.52181 10.1398 1.83837 10.4406 1.33451 10.9754C0.830658 11.5103 0.547623 12.2355 0.547623 12.9917ZM78.9524 66.6334H6.47367C6.01597 66.6334 5.57701 66.4405 5.25337 66.0972C4.92972 65.7538 4.74789 65.2882 4.74789 64.8026V16.4306C4.74789 15.945 4.92972 15.4793 5.25337 15.136C5.57701 14.7926 6.01597 14.5998 6.47367 14.5998H78.9524C79.4101 14.5998 79.8491 14.7926 80.1727 15.136C80.4963 15.4793 80.6782 15.945 80.6782 16.4306V64.8026C80.6782 65.2882 80.4963 65.7538 80.1727 66.0972C79.8491 66.4405 79.4101 66.6334 78.9524 66.6334Z" fill="#CEB189"/>
<path d="M44.9048 57.2894L54.5639 48.9828C54.9725 48.6313 55.2602 48.1457 55.3822 47.6019C55.5042 47.058 55.4536 46.4864 55.2383 45.9764C55.0942 45.6353 55.0228 45.2644 55.0295 44.8904C55.0361 44.5164 55.1206 44.1486 55.2768 43.8135C55.433 43.4785 55.657 43.1844 55.9328 42.9525C56.2085 42.7206 56.5291 42.5567 56.8715 42.4725L59.1429 41.9144L53.5194 39.4644L44.9048 57.2894Z" fill="#02103F"/>
<path d="M30.6309 18.1033C30.8852 18.4301 31.0552 18.8222 31.1239 19.2409C31.1926 19.6596 31.1577 20.0902 31.0226 20.49C30.8416 21.0264 30.8423 21.6138 31.0246 22.1498C31.207 22.6857 31.5593 23.1364 32.0204 23.4233C32.3643 23.6368 32.65 23.9427 32.8491 24.3107C33.0483 24.6787 33.1539 25.096 33.1555 25.5211C33.1575 26.091 33.3464 26.6422 33.6893 27.0786C34.0322 27.515 34.5075 27.8091 35.0323 27.9095C35.4239 27.9848 35.7903 28.1683 36.0951 28.4418C36.3998 28.7153 36.6323 29.0693 36.7694 29.4687C36.7752 29.4873 36.7835 29.5051 36.7902 29.5229L37.7207 23.666L49.9386 30.2135V31.4144C50.4245 31.0673 51.0165 30.9327 51.5925 31.0384C52.1183 31.1353 52.6593 31.032 53.1212 30.7464C53.5831 30.4609 53.9367 30.0113 54.1204 29.4758C54.2575 29.0765 54.49 28.7224 54.7947 28.4489C55.0995 28.1754 55.4659 27.9919 55.8575 27.9166C56.3822 27.816 56.8572 27.5219 57.2 27.0855C57.5428 26.6491 57.7315 26.098 57.7335 25.5282C57.7351 25.1031 57.8407 24.6858 58.0398 24.3178C58.2389 23.9498 58.5246 23.6439 58.8685 23.4304C59.3295 23.1434 59.6818 22.6927 59.8641 22.1568C60.0464 21.6209 60.0472 21.0336 59.8664 20.4971C59.7313 20.0973 59.6964 19.6667 59.7651 19.248C59.8338 18.8294 60.0037 18.4372 60.258 18.1104C60.599 17.6728 60.7857 17.1213 60.7857 16.5517C60.7857 15.9822 60.599 15.4307 60.258 14.9931V14.9877C60.0037 14.6612 59.8337 14.2691 59.765 13.8506C59.6962 13.432 59.7312 13.0016 59.8664 12.6019C60.0475 12.0655 60.0469 11.4781 59.8646 10.942C59.6822 10.406 59.3297 9.95537 58.8685 9.6686C58.5247 9.45526 58.239 9.14948 58.0399 8.78164C57.8408 8.4138 57.7352 7.99668 57.7335 7.5717V7.56726C57.7316 6.99733 57.5428 6.44615 57.2001 6.0096C56.8573 5.57305 56.3823 5.27876 55.8575 5.17792C55.4656 5.10281 55.0989 4.91927 54.794 4.64557C54.4891 4.37187 54.2566 4.01755 54.1196 3.61791C53.936 3.08238 53.5824 2.63271 53.1204 2.34731C52.6584 2.0619 52.1174 1.95885 51.5917 2.05613C51.2003 2.12852 50.798 2.09023 50.4247 1.94506C50.0514 1.79989 49.7201 1.55289 49.4638 1.22857C49.1194 0.792784 48.6428 0.499995 48.1172 0.401234C47.5916 0.302473 47.0502 0.404002 46.5874 0.688128C46.2421 0.900419 45.8507 1.01214 45.4524 1.01214C45.054 1.01214 44.6626 0.900419 44.3173 0.688128C43.8545 0.404176 43.3132 0.302746 42.7876 0.401499C42.262 0.500251 41.7855 0.792932 41.441 1.22857C41.1844 1.55289 40.853 1.79988 40.4796 1.94504C40.1062 2.09021 39.7038 2.1285 39.3123 2.05613C38.7866 1.9589 38.2457 2.06198 37.7839 2.34739C37.3221 2.63281 36.9686 3.08245 36.7852 3.61791C36.6484 4.01754 36.4161 4.37186 36.1113 4.64558C35.8065 4.91929 35.4399 5.10284 35.0481 5.17792C34.5232 5.27857 34.0479 5.57279 33.705 6.00936C33.3621 6.44592 33.1732 6.99721 33.1713 7.56726V7.5717C33.1698 7.99672 33.0642 8.41391 32.8651 8.78178C32.6659 9.14965 32.3802 9.45539 32.0362 9.6686C31.575 9.95537 31.2225 10.406 31.0402 10.942C30.8579 11.4781 30.8572 12.0655 31.0384 12.6019C31.1735 13.0016 31.2085 13.432 31.1398 13.8506C31.0711 14.2691 30.9011 14.6612 30.6467 14.9877V14.9931C30.3058 15.4307 30.119 15.9822 30.119 16.5517C30.119 17.1213 30.3058 17.6728 30.6467 18.1104L30.6309 18.1033Z" fill="#02103F"/>
<path d="M62.4286 83.1643H59.1429V92.3643H62.4286V83.1643Z" fill="#FC503C"/>
<path d="M62.4286 86.6144V89.4894H65.1667V86.6144H62.4286Z" fill="#FC503C"/>
<path d="M70.0952 83.1645C70.0955 81.182 70.9033 79.2809 72.341 77.8791C73.7787 76.4773 75.7287 75.6897 77.7619 75.6895V83.1645H70.0952Z" fill="#CEB189"/>
<path d="M84.8809 83.1645C84.8809 81.182 84.1309 79.2807 82.7958 77.8788C81.4607 76.477 79.65 75.6895 77.7619 75.6895V83.1645H84.8809Z" fill="#FC503C"/>
<path d="M59.1429 66.4895C59.1429 65.2695 58.7102 64.0994 57.94 63.2368C57.1699 62.3741 56.1253 61.8895 55.0361 61.8895C54.4967 61.8893 53.9626 62.0082 53.4643 62.2394C52.9659 62.4705 52.5131 62.8093 52.1317 63.2365C51.7503 63.6636 51.4477 64.1708 51.2413 64.7289C51.0348 65.2871 50.9286 65.8853 50.9286 66.4895H59.1429Z" fill="#02103F"/>
<path d="M33.4048 66.4895C33.4048 65.2695 32.972 64.0994 32.2018 63.2368C31.4316 62.3741 30.3869 61.8895 29.2976 61.8895C28.2083 61.8895 27.1637 62.3741 26.3934 63.2368C25.6232 64.0994 25.1905 65.2695 25.1905 66.4895H33.4048Z" fill="#CEB189"/>
<path d="M29.5714 37.7393H8.21429V71.0893H29.5714V37.7393Z" fill="#0C42F9"/>
<path d="M55.8464 21.5583C55.8072 21.2108 55.6476 20.8896 55.397 20.6536C55.1464 20.4177 54.8217 20.2828 54.4824 20.2738C54.4824 20.2694 54.4824 20.2659 54.4824 20.2624V20.2677C54.7229 19.212 54.9079 18.1436 55.0364 17.0673C55.6482 12.0025 52.3134 7.40575 47.3994 6.77528C42.4921 6.08455 38.1246 9.64386 37.4536 14.7017C37.3121 15.7696 37.2333 16.7642 37.1994 17.6942C37.3019 17.7493 37.3002 17.7501 37.1994 17.6942C36.9268 17.527 36.6123 17.4465 36.2954 17.4628C35.7354 17.5074 35.194 17.8951 35.0652 18.4592C34.9059 19.1814 35.8811 22.022 35.8811 22.022C36.1353 22.8507 37.5849 23.2803 37.5849 23.2803C37.6933 23.8637 37.9475 25.3761 38.05 25.8817C38.5584 28.3739 40.0631 30.0453 41.1848 31.5027C42.2134 32.8405 43.7833 33.0676 44.0655 33.1008C44.3476 33.134 45.9209 33.3392 47.2477 32.3149C48.6931 31.2032 50.5681 29.9868 51.6763 27.7111C51.8356 27.3837 52.6447 25.6852 52.6447 25.6852C53.281 25.7175 53.9664 25.6424 54.3705 24.881L55.5922 22.5783C55.6192 22.5398 55.644 22.4998 55.6668 22.4586L55.6803 22.4377C55.8249 22.1702 55.8831 21.8622 55.8464 21.5583Z" fill="#FC503C"/>
<path d="M45.8308 10.9771C48.1699 10.9771 50.4131 11.9413 52.067 13.6575C53.721 15.3737 54.6501 17.7014 54.6501 20.1285L54.6784 20.4895C54.6784 20.4895 54.6784 20.4824 54.6784 20.4789C54.9211 19.4079 55.1075 18.3241 55.2366 17.2321C55.8539 12.0869 52.4889 7.41713 47.5304 6.77664C42.5787 6.07494 38.1717 9.69079 37.4946 14.8289C37.3518 15.9138 37.2723 16.9243 37.2381 17.869C38.1024 13.9551 41.8666 10.9771 45.8308 10.9771Z" fill="#0C42F9"/>
<path d="M8.21429 50.9645H23.3335C23.5356 50.9645 23.7293 51.0529 23.8721 51.2102C24.015 51.3675 24.0952 51.5808 24.0952 51.8032V52.4259C24.0952 52.6483 24.015 52.8616 23.8721 53.0189C23.7293 53.1762 23.5356 53.2645 23.3335 53.2645H8.21429V50.9645Z" fill="#02103F"/>
<path d="M8.21429 46.9395H23.3335C23.5356 46.9395 23.7293 47.0278 23.8721 47.1851C24.015 47.3424 24.0952 47.5557 24.0952 47.7781V48.4008C24.0952 48.6232 24.015 48.8366 23.8721 48.9938C23.7293 49.1511 23.5356 49.2395 23.3335 49.2395H8.21429V46.9395Z" fill="#02103F"/>
<path d="M8.21429 56.1394H23.3335C23.5356 56.1394 23.7293 56.1836 23.8721 56.2622C24.015 56.3408 24.0952 56.4475 24.0952 56.5587V56.87C24.0952 56.9813 24.015 57.0879 23.8721 57.1666C23.7293 57.2452 23.5356 57.2894 23.3335 57.2894H8.21429V56.1394Z" fill="#02103F"/>
<path d="M8.21429 60.1645H23.3335C23.5356 60.1645 23.7293 60.2528 23.8721 60.4101C24.015 60.5674 24.0952 60.7807 24.0952 61.0031V61.6258C24.0952 61.8482 24.015 62.0615 23.8721 62.2188C23.7293 62.3761 23.5356 62.4645 23.3335 62.4645H8.21429V60.1645Z" fill="#02103F"/>
<path d="M0.547623 76.8395H29.5714L23.0657 83.1645H6.93999C5.24508 83.1645 3.61958 82.4981 2.4211 81.3119C1.22262 80.1258 0.549329 78.517 0.549329 76.8395H0.547623Z" fill="#02103F"/>
<path d="M8.21429 71.0894V83.1644L17.8589 80.3177C18.454 81.1921 19.2551 81.9085 20.1922 82.4046C21.1293 82.9008 22.1741 83.1616 23.2358 83.1644C24.9161 83.1644 26.5276 82.5004 27.7158 81.3186C28.9039 80.1368 29.5714 78.534 29.5714 76.8626V71.0894H8.21429Z" fill="#FC503C"/>
<path d="M42.1667 26.8144H43.7656C44.0294 26.8169 44.2883 26.8834 44.5184 27.0077C44.7485 27.132 44.9424 27.3101 45.0821 27.5257L45.2559 27.7867L45.56 27.5273C45.7305 27.3791 45.9336 27.27 46.1541 27.2083C46.3746 27.1465 46.6067 27.1337 46.8331 27.1709L48.1905 27.3985C48.1905 27.3985 47.0703 29.9774 44.9283 29.6628C42.6489 29.3281 42.1667 26.8144 42.1667 26.8144Z" fill="#02103F"/>
<path d="M8.04318 38.5561V46.9395C7.09514 45.7355 6.57109 44.1761 6.57144 42.56V38.2333C6.57122 37.4644 6.82991 36.7247 7.29437 36.166L8.06905 35.2366C8.16677 35.1187 8.28472 35.0249 8.41561 34.9609C8.5465 34.8968 8.68755 34.8641 8.83003 34.8645C9.044 34.8644 9.25286 34.939 9.4283 35.0783C9.60375 35.2176 9.73731 35.4148 9.81093 35.6433L10.9524 39.2371V40.3915C10.9524 40.5738 10.8932 40.7496 10.7862 40.8854C10.6792 41.0211 10.5319 41.1072 10.3725 41.127C10.2337 41.1441 10.0936 41.1099 9.97317 41.0295C9.85271 40.9491 9.7582 40.8267 9.70363 40.6805L8.83992 38.3683C8.80827 38.2832 8.75532 38.2106 8.68767 38.1596C8.62001 38.1085 8.54064 38.0812 8.45943 38.081C8.40458 38.0808 8.35024 38.0929 8.29954 38.1167C8.24885 38.1405 8.20282 38.1755 8.16411 38.2197C8.12539 38.2639 8.09477 38.3164 8.07401 38.3741C8.05325 38.4319 8.04278 38.4937 8.04318 38.5561Z" fill="#FC503C"/>
<path d="M9.85715 35.2751L10.7468 34.1913C10.8709 34.0403 11.0185 33.9205 11.181 33.8386C11.3434 33.7568 11.5176 33.7146 11.6936 33.7145C11.872 33.7145 12.0485 33.7579 12.2129 33.842C12.3772 33.926 12.526 34.0491 12.6504 34.204C12.7748 34.3589 12.8724 34.5424 12.9373 34.7437C13.0022 34.945 13.0331 35.1601 13.0283 35.3761C12.9866 37.2551 12.9577 40.2556 13.1357 41.8376C13.1616 42.0675 13.1165 42.3009 13.009 42.4931C12.9016 42.6852 12.7394 42.8225 12.5535 42.8786L12.5323 42.8845C12.3535 42.9405 12.164 42.9175 11.9979 42.8197C11.8317 42.7218 11.6998 42.5554 11.6257 42.3504C11.1959 41.1847 10.9625 39.9269 10.9389 38.6505L9.85715 35.2751Z" fill="#FC503C"/>
<path d="M13.2323 39.8199C13.2323 39.8199 13.2323 41.6434 13.8705 42.8817C13.9658 43.0655 14.1077 43.2192 14.281 43.3263C14.4543 43.4334 14.6525 43.4898 14.8545 43.4895C15.0102 43.4894 15.1642 43.4557 15.3065 43.3905C15.4488 43.3253 15.5764 43.23 15.6809 43.1109C15.7855 42.9917 15.8647 42.8513 15.9136 42.6986C15.9624 42.5459 15.9798 42.3843 15.9645 42.2243C15.8669 41.1823 15.7963 39.6905 16.0015 38.4522C16.1638 37.4762 16.3076 36.4029 16.4161 35.525C16.444 35.2986 16.425 35.0687 16.3601 34.8505C16.2953 34.6323 16.1863 34.4309 16.0402 34.2596C15.8941 34.0883 15.7144 33.9511 15.513 33.8571C15.3116 33.7631 15.0931 33.7145 14.8721 33.7145C14.494 33.7141 14.1287 33.856 13.8447 34.1136C13.5606 34.3713 13.3773 34.7271 13.329 35.1143C13.1843 36.2866 13.0473 38.0502 13.2323 39.8199Z" fill="#FC503C"/>
<path d="M16.4286 33.8772V33.8268C16.4286 33.661 16.4569 33.4967 16.512 33.3435C16.5671 33.1903 16.6478 33.0511 16.7495 32.9339C16.8513 32.8167 16.9721 32.7237 17.105 32.6603C17.2379 32.5969 17.3804 32.5644 17.5242 32.5645C17.8146 32.5645 18.0931 32.6975 18.2984 32.9342C18.5037 33.1709 18.619 33.492 18.619 33.8268V38.7771C18.619 39.1119 18.5037 39.433 18.2984 39.6698C18.0931 39.9065 17.8146 40.0395 17.5242 40.0395C17.3804 40.0396 17.2379 40.007 17.105 39.9437C16.9721 39.8803 16.8513 39.7873 16.7495 39.6701C16.6478 39.5528 16.5671 39.4136 16.512 39.2604C16.4569 39.1072 16.4286 38.943 16.4286 38.7771V33.8772Z" fill="#FC503C"/>
<path d="M16.6267 76.8395H0.547623C0.547623 78.517 1.21901 80.1258 2.41408 81.3119C3.60916 82.4981 5.23002 83.1645 6.92011 83.1645H23C22.1631 83.1646 21.3343 83.0011 20.5611 82.6833C19.7879 82.3654 19.0853 81.8996 18.4934 81.3122C17.9016 80.7249 17.4321 80.0276 17.1118 79.2601C16.7915 78.4927 16.6267 77.6702 16.6267 76.8395Z" fill="#0C42F9"/>
<path d="M73.1992 23.9399C73.199 23.2335 73.3676 22.5395 73.6879 21.9278C74.0082 21.316 74.469 20.8082 75.0238 20.4553C74.4691 20.1014 73.8397 19.9149 73.1989 19.9145C72.5581 19.9141 71.9285 20.0998 71.3734 20.453C70.8183 20.8062 70.3574 21.3143 70.0369 21.9264C69.7164 22.5384 69.5476 23.2327 69.5476 23.9395C69.5476 24.6463 69.7164 25.3407 70.0369 25.9527C70.3574 26.5647 70.8183 27.0729 71.3734 27.426C71.9285 27.7792 72.5581 27.9649 73.1989 27.9645C73.8397 27.9641 74.4691 27.7776 75.0238 27.4237C74.469 27.071 74.0083 26.5633 73.6879 25.9517C73.3676 25.3401 73.1991 24.6462 73.1992 23.9399Z" fill="#02103F"/>
<path d="M84.881 83.1643H76.6667V92.3643H84.881V83.1643Z" fill="#0C42F9"/>
<path d="M50.2999 29.9214V33.5258C50.3 34.6677 50.6187 35.7838 51.2156 36.732C51.8124 37.6802 52.6603 38.4176 53.6513 38.8502L60.9384 42.0303C64.1531 43.4337 66.8865 45.8552 68.7696 48.968L82.1428 71.0893H8.7619L18.0164 44.467C18.7514 43.1012 19.7359 41.9066 20.9117 40.9539C22.0875 40.0012 23.4305 39.3098 24.8614 38.9206L32.6274 36.8083C33.6121 36.5401 34.5062 35.9819 35.2075 35.1975C35.9087 34.4131 36.3889 33.4341 36.5932 32.3724L38.0274 23.3643L50.2999 29.9214Z" fill="#D04837"/>
<path d="M44.9048 83.1645V92.3645H77.7619V83.1645H44.9048Z" fill="#CEB189"/>
<path d="M59.1429 83.1643H44.9048V92.3643H59.1429V83.1643Z" fill="#02103F"/>
<path d="M44.7917 83.7681V57.2894H40.6319V83.7681C40.6319 84.8704 40.2216 85.9275 39.4914 86.707C38.7611 87.4864 37.7707 87.9243 36.738 87.9243H28.3652C27.8137 87.9243 27.2848 88.1582 26.8948 88.5744C26.5048 88.9907 26.2857 89.5552 26.2857 90.1439C26.2857 90.7327 26.5048 91.2973 26.8947 91.7137C27.2847 92.1301 27.8136 92.3642 28.3652 92.3644H57.0633C57.6149 92.3642 58.1439 92.1301 58.5338 91.7137C58.9238 91.2973 59.1428 90.7327 59.1428 90.1439C59.1428 89.5552 58.9238 88.9907 58.5338 88.5744C58.1438 88.1582 57.6149 87.9243 57.0633 87.9243H48.6856C47.6529 87.9243 46.6625 87.4864 45.9322 86.707C45.202 85.9275 44.7917 84.8704 44.7917 83.7681Z" fill="#A7E1FF"/>
<path d="M82.1429 71.0869L68.7618 48.9599C66.8784 45.8462 64.1442 43.424 60.9285 42.0205L53.8458 38.9297L45.1079 57.0387L34.2633 36.0145C33.7573 36.3722 33.1986 36.6368 32.6105 36.7973L24.8424 38.9128C23.4111 39.302 22.0677 39.9936 20.8916 40.9465C19.7155 41.8995 18.7307 43.0944 17.9955 44.4606L8.21429 71.0895L82.1429 71.0869Z" fill="#0C42F9"/>
<path d="M34.1267 36.0145C33.6238 36.3722 33.0686 36.6368 32.4841 36.7973L24.7636 38.913C23.3412 39.3023 22.0059 39.9939 20.8371 40.9469C19.6682 41.8999 18.6895 43.0949 17.9588 44.4612L8.7619 71.0895H44.9048V57.0403L34.1267 36.0145Z" fill="#0C42C3"/>
<path d="M29.5714 37.7042L33.3133 40.1346C33.6353 40.3442 33.9149 40.6255 34.1344 40.9606C34.3538 41.2957 34.5085 41.6775 34.5887 42.082C34.6689 42.4865 34.6729 42.9051 34.6004 43.3114C34.5279 43.7177 34.3805 44.103 34.1674 44.4432C33.7725 45.076 33.6114 45.8527 33.7173 46.6132C33.8232 47.3738 34.1881 48.0604 34.7368 48.5316L44.9048 57.2895L34.3528 36.0145C33.8605 36.3765 33.3169 36.6442 32.7447 36.8066L29.5714 37.7042Z" fill="#0C42F9"/>
<path d="M0.547623 12.9917V68.2371C0.547623 68.9932 0.830658 69.7185 1.33451 70.2533C1.83837 70.7882 2.52181 71.0889 3.23459 71.0894H82.1881C82.5416 71.09 82.8916 71.0166 83.2183 70.8735C83.545 70.7304 83.8419 70.5204 84.092 70.2555C84.3421 69.9906 84.5405 69.676 84.6759 69.3296C84.8113 68.9833 84.881 68.612 84.881 68.2371V12.9917C84.881 12.2352 84.5977 11.5097 84.0935 10.9748C83.5892 10.4399 82.9054 10.1394 82.1923 10.1394H3.23459C2.52181 10.1398 1.83837 10.4406 1.33451 10.9754C0.830658 11.5103 0.547623 12.2355 0.547623 12.9917ZM78.9524 66.6334H6.47367C6.01597 66.6334 5.57701 66.4405 5.25337 66.0972C4.92972 65.7538 4.74789 65.2882 4.74789 64.8026V16.4306C4.74789 15.945 4.92972 15.4793 5.25337 15.136C5.57701 14.7926 6.01597 14.5998 6.47367 14.5998H78.9524C79.4101 14.5998 79.8491 14.7926 80.1727 15.136C80.4963 15.4793 80.6782 15.945 80.6782 16.4306V64.8026C80.6782 65.2882 80.4963 65.7538 80.1727 66.0972C79.8491 66.4405 79.4101 66.6334 78.9524 66.6334Z" fill="#A7E1FF"/>
<path d="M44.9048 57.2894L54.5639 48.9828C54.9725 48.6313 55.2602 48.1457 55.3822 47.6019C55.5042 47.058 55.4536 46.4864 55.2383 45.9764C55.0942 45.6353 55.0228 45.2644 55.0295 44.8904C55.0361 44.5164 55.1206 44.1486 55.2768 43.8135C55.433 43.4785 55.657 43.1844 55.9328 42.9525C56.2085 42.7206 56.5291 42.5567 56.8715 42.4725L59.1429 41.9144L53.5194 39.4644L44.9048 57.2894Z" fill="#0C42C3"/>
<path d="M30.6309 18.1033C30.8852 18.4301 31.0552 18.8222 31.1239 19.2409C31.1926 19.6596 31.1577 20.0902 31.0226 20.49C30.8416 21.0264 30.8423 21.6138 31.0246 22.1498C31.207 22.6857 31.5593 23.1364 32.0204 23.4233C32.3643 23.6368 32.65 23.9427 32.8491 24.3107C33.0483 24.6787 33.1539 25.096 33.1555 25.5211C33.1575 26.091 33.3464 26.6422 33.6893 27.0786C34.0322 27.515 34.5075 27.8091 35.0323 27.9095C35.4239 27.9848 35.7903 28.1683 36.0951 28.4418C36.3998 28.7153 36.6323 29.0693 36.7694 29.4687C36.7752 29.4873 36.7835 29.5051 36.7902 29.5229L37.7207 23.666L49.9386 30.2135V31.4144C50.4245 31.0673 51.0165 30.9327 51.5925 31.0384C52.1183 31.1353 52.6593 31.032 53.1212 30.7464C53.5831 30.4609 53.9367 30.0113 54.1204 29.4758C54.2575 29.0765 54.49 28.7224 54.7947 28.4489C55.0995 28.1754 55.4659 27.9919 55.8575 27.9166C56.3822 27.816 56.8572 27.5219 57.2 27.0855C57.5428 26.6491 57.7315 26.098 57.7335 25.5282C57.7351 25.1031 57.8407 24.6858 58.0398 24.3178C58.2389 23.9498 58.5246 23.6439 58.8685 23.4304C59.3295 23.1434 59.6818 22.6927 59.8641 22.1568C60.0464 21.6209 60.0472 21.0336 59.8664 20.4971C59.7313 20.0973 59.6964 19.6667 59.7651 19.248C59.8338 18.8294 60.0037 18.4372 60.258 18.1104C60.599 17.6728 60.7857 17.1213 60.7857 16.5517C60.7857 15.9822 60.599 15.4307 60.258 14.9931V14.9877C60.0037 14.6612 59.8337 14.2691 59.765 13.8506C59.6962 13.432 59.7312 13.0016 59.8664 12.6019C60.0475 12.0655 60.0469 11.4781 59.8646 10.942C59.6822 10.406 59.3297 9.95537 58.8685 9.6686C58.5247 9.45526 58.239 9.14948 58.0399 8.78164C57.8408 8.4138 57.7352 7.99668 57.7335 7.5717V7.56726C57.7316 6.99733 57.5428 6.44615 57.2001 6.0096C56.8573 5.57305 56.3823 5.27876 55.8575 5.17792C55.4656 5.10281 55.0989 4.91927 54.794 4.64557C54.4891 4.37187 54.2566 4.01755 54.1196 3.61791C53.936 3.08238 53.5824 2.63271 53.1204 2.34731C52.6584 2.0619 52.1174 1.95885 51.5917 2.05613C51.2003 2.12852 50.798 2.09023 50.4247 1.94506C50.0514 1.79989 49.7201 1.55289 49.4638 1.22857C49.1194 0.792784 48.6428 0.499995 48.1172 0.401234C47.5916 0.302473 47.0502 0.404002 46.5874 0.688128C46.2421 0.900419 45.8507 1.01214 45.4524 1.01214C45.054 1.01214 44.6626 0.900419 44.3173 0.688128C43.8545 0.404176 43.3132 0.302746 42.7876 0.401499C42.262 0.500251 41.7855 0.792932 41.441 1.22857C41.1844 1.55289 40.853 1.79988 40.4796 1.94504C40.1062 2.09021 39.7038 2.1285 39.3123 2.05613C38.7866 1.9589 38.2457 2.06198 37.7839 2.34739C37.3221 2.63281 36.9686 3.08245 36.7852 3.61791C36.6484 4.01754 36.4161 4.37186 36.1113 4.64558C35.8065 4.91929 35.4399 5.10284 35.0481 5.17792C34.5232 5.27857 34.0479 5.57279 33.705 6.00936C33.3621 6.44592 33.1732 6.99721 33.1713 7.56726V7.5717C33.1698 7.99672 33.0642 8.41391 32.8651 8.78178C32.6659 9.14965 32.3802 9.45539 32.0362 9.6686C31.575 9.95537 31.2225 10.406 31.0402 10.942C30.8579 11.4781 30.8572 12.0655 31.0384 12.6019C31.1735 13.0016 31.2085 13.432 31.1398 13.8506C31.0711 14.2691 30.9011 14.6612 30.6467 14.9877V14.9931C30.3058 15.4307 30.119 15.9822 30.119 16.5517C30.119 17.1213 30.3058 17.6728 30.6467 18.1104L30.6309 18.1033Z" fill="#CEB189"/>
<path d="M62.4286 83.1643H59.1429V92.3643H62.4286V83.1643Z" fill="#0C42F9"/>
<path d="M62.4286 86.6144V89.4894H65.1667V86.6144H62.4286Z" fill="#0C42F9"/>
<path d="M70.0952 83.1645C70.0955 81.182 70.9033 79.2809 72.341 77.8791C73.7787 76.4773 75.7287 75.6897 77.7619 75.6895V83.1645H70.0952Z" fill="#FC503C"/>
<path d="M84.8809 83.1645C84.8809 81.182 84.1309 79.2807 82.7958 77.8788C81.4607 76.477 79.65 75.6895 77.7619 75.6895V83.1645H84.8809Z" fill="#0C42F9"/>
<path d="M0.547623 76.8395H29.5714L23.0657 83.1645H6.93999C5.24508 83.1645 3.61958 82.4981 2.4211 81.3119C1.22262 80.1258 0.549329 78.517 0.549329 76.8395H0.547623Z" fill="#02103F"/>
<path d="M8.21429 71.0894V83.1644L17.8589 80.3177C18.454 81.1921 19.2551 81.9085 20.1922 82.4046C21.1293 82.9008 22.1741 83.1616 23.2358 83.1644C24.9161 83.1644 26.5276 82.5004 27.7158 81.3186C28.9039 80.1368 29.5714 78.534 29.5714 76.8626V71.0894H8.21429Z" fill="#02103F"/>
<path d="M16.6267 76.8395H0.547623C0.547623 78.517 1.21901 80.1258 2.41408 81.3119C3.60916 82.4981 5.23002 83.1645 6.92011 83.1645H23C22.1631 83.1646 21.3343 83.0011 20.5611 82.6833C19.7879 82.3654 19.0853 81.8996 18.4934 81.3122C17.9016 80.7249 17.4321 80.0276 17.1118 79.2601C16.7915 78.4927 16.6267 77.6702 16.6267 76.8395Z" fill="#CEB189"/>
<path d="M18.0714 23.6524L16.3129 24.6913L17.1817 26.6732L15.2058 26.371L14.8547 28.5395L13.4167 27.0127L11.9778 28.5395L11.6275 26.371L9.65083 26.6723L10.5196 24.6913L8.7619 23.6524L10.5196 22.6135L9.65083 20.6317L11.6275 20.933L11.9778 18.7645L13.4167 20.2922L14.8547 18.7645L15.2058 20.933L17.1817 20.6317L16.3129 22.6135L18.0714 23.6524Z" fill="#FC503C"/>
<path d="M73.1992 23.9399C73.199 23.2335 73.3676 22.5395 73.6879 21.9278C74.0082 21.316 74.469 20.8082 75.0238 20.4553C74.4691 20.1014 73.8397 19.9149 73.1989 19.9145C72.5581 19.9141 71.9285 20.0998 71.3734 20.453C70.8183 20.8062 70.3574 21.3143 70.0369 21.9264C69.7164 22.5384 69.5476 23.2327 69.5476 23.9395C69.5476 24.6463 69.7164 25.3407 70.0369 25.9527C70.3574 26.5647 70.8183 27.0729 71.3734 27.426C71.9285 27.7792 72.5581 27.9649 73.1989 27.9645C73.8397 27.9641 74.4691 27.7776 75.0238 27.4237C74.469 27.071 74.0083 26.5633 73.6879 25.9517C73.3676 25.3401 73.1991 24.6462 73.1992 23.9399Z" fill="#FC503C"/>
<path d="M30.4948 60.1645H34.1235C34.3686 60.1645 34.6037 60.2769 34.777 60.4771C34.9503 60.6772 35.0476 60.9487 35.0476 61.2318V66.4895H29.5714V61.2318C29.5714 60.9487 29.6688 60.6772 29.8421 60.4771C30.0154 60.2769 30.2504 60.1645 30.4955 60.1645H30.4948Z" fill="#0C42F9"/>
<path d="M53.4947 60.1645H57.1235C57.3686 60.1645 57.6037 60.2769 57.777 60.4771C57.9503 60.6772 58.0476 60.9487 58.0476 61.2318V66.4895H52.5714V61.2318C52.5714 60.9489 52.6687 60.6775 52.8418 60.4774C53.0149 60.2773 53.2498 60.1647 53.4947 60.1645Z" fill="#0C42C3"/>
<path d="M29.5714 37.7393H8.21429V71.0893H29.5714V37.7393Z" fill="#FC503C"/>
<path d="M8.04318 38.5561V46.9395C7.09514 45.7355 6.57109 44.1761 6.57144 42.56V38.2333C6.57122 37.4644 6.82991 36.7247 7.29437 36.166L8.06905 35.2366C8.16677 35.1187 8.28472 35.0249 8.41561 34.9609C8.5465 34.8968 8.68755 34.8641 8.83003 34.8645C9.044 34.8644 9.25286 34.939 9.4283 35.0783C9.60375 35.2176 9.73731 35.4148 9.81093 35.6433L10.9524 39.2371V40.3915C10.9524 40.5738 10.8932 40.7496 10.7862 40.8854C10.6792 41.0211 10.5319 41.1072 10.3725 41.127C10.2337 41.1441 10.0936 41.1099 9.97317 41.0295C9.85271 40.9491 9.7582 40.8267 9.70363 40.6805L8.83992 38.3683C8.80827 38.2832 8.75532 38.2106 8.68767 38.1596C8.62001 38.1085 8.54064 38.0812 8.45943 38.081C8.40458 38.0808 8.35024 38.0929 8.29954 38.1167C8.24885 38.1405 8.20282 38.1755 8.16411 38.2197C8.12539 38.2639 8.09477 38.3164 8.07401 38.3741C8.05325 38.4319 8.04278 38.4937 8.04318 38.5561Z" fill="#CEB189"/>
<path d="M9.85715 35.2751L10.7468 34.1913C10.8709 34.0403 11.0185 33.9205 11.181 33.8386C11.3434 33.7568 11.5176 33.7146 11.6936 33.7145C11.872 33.7145 12.0485 33.7579 12.2129 33.842C12.3772 33.926 12.526 34.0491 12.6504 34.204C12.7748 34.3589 12.8724 34.5424 12.9373 34.7437C13.0022 34.945 13.0331 35.1601 13.0283 35.3761C12.9866 37.2551 12.9577 40.2556 13.1357 41.8376C13.1616 42.0675 13.1165 42.3009 13.009 42.4931C12.9016 42.6852 12.7394 42.8225 12.5535 42.8786L12.5323 42.8845C12.3535 42.9405 12.164 42.9175 11.9979 42.8197C11.8317 42.7218 11.6998 42.5554 11.6257 42.3504C11.1959 41.1847 10.9625 39.9269 10.9389 38.6505L9.85715 35.2751Z" fill="#CEB189"/>
<path d="M13.2323 39.8199C13.2323 39.8199 13.2323 41.6434 13.8705 42.8817C13.9658 43.0655 14.1077 43.2192 14.281 43.3263C14.4543 43.4334 14.6525 43.4898 14.8545 43.4895C15.0102 43.4894 15.1642 43.4557 15.3065 43.3905C15.4488 43.3253 15.5764 43.23 15.6809 43.1109C15.7855 42.9917 15.8647 42.8513 15.9136 42.6986C15.9624 42.5459 15.9798 42.3843 15.9645 42.2243C15.8669 41.1823 15.7963 39.6905 16.0015 38.4522C16.1638 37.4762 16.3076 36.4029 16.4161 35.525C16.444 35.2986 16.425 35.0687 16.3601 34.8505C16.2953 34.6323 16.1863 34.4309 16.0402 34.2596C15.8941 34.0883 15.7144 33.9511 15.513 33.8571C15.3116 33.7631 15.0931 33.7145 14.8721 33.7145C14.494 33.7141 14.1287 33.856 13.8447 34.1136C13.5606 34.3713 13.3773 34.7271 13.329 35.1143C13.1843 36.2866 13.0473 38.0502 13.2323 39.8199Z" fill="#CEB189"/>
<path d="M55.8464 21.5583C55.8072 21.2108 55.6476 20.8896 55.397 20.6536C55.1464 20.4177 54.8217 20.2828 54.4824 20.2738C54.4824 20.2694 54.4824 20.2659 54.4824 20.2624V20.2677C54.7229 19.212 54.9079 18.1436 55.0364 17.0673C55.6482 12.0025 52.3134 7.40575 47.3994 6.77528C42.4921 6.08455 38.1246 9.64386 37.4536 14.7017C37.3121 15.7696 37.2333 16.7642 37.1994 17.6942C37.3019 17.7493 37.3002 17.7501 37.1994 17.6942C36.9268 17.527 36.6123 17.4465 36.2954 17.4628C35.7354 17.5074 35.194 17.8951 35.0652 18.4592C34.9059 19.1814 35.8811 22.022 35.8811 22.022C36.1353 22.8507 37.5849 23.2803 37.5849 23.2803C37.6933 23.8637 37.9475 25.3761 38.05 25.8817C38.5584 28.3739 40.0631 30.0453 41.1848 31.5027C42.2134 32.8405 43.7833 33.0676 44.0655 33.1008C44.3476 33.134 45.9209 33.3392 47.2477 32.3149C48.6931 31.2032 50.5681 29.9868 51.6763 27.7111C51.8356 27.3837 52.6447 25.6852 52.6447 25.6852C53.281 25.7175 53.9664 25.6424 54.3705 24.881L55.5922 22.5783C55.6192 22.5398 55.644 22.4998 55.6668 22.4586L55.6803 22.4377C55.8249 22.1702 55.8831 21.8622 55.8464 21.5583Z" fill="#FC503C"/>
<path d="M16.4286 33.8772V33.8268C16.4286 33.661 16.4569 33.4967 16.512 33.3435C16.5671 33.1903 16.6478 33.0511 16.7495 32.9339C16.8513 32.8167 16.9721 32.7237 17.105 32.6603C17.2379 32.5969 17.3804 32.5644 17.5242 32.5645C17.8146 32.5645 18.0931 32.6975 18.2984 32.9342C18.5037 33.1709 18.619 33.492 18.619 33.8268V38.7771C18.619 39.1119 18.5037 39.433 18.2984 39.6698C18.0931 39.9065 17.8146 40.0395 17.5242 40.0395C17.3804 40.0396 17.2379 40.007 17.105 39.9437C16.9721 39.8803 16.8513 39.7873 16.7495 39.6701C16.6478 39.5528 16.5671 39.4136 16.512 39.2604C16.4569 39.1072 16.4286 38.943 16.4286 38.7771V33.8772Z" fill="#CEB189"/>
<path d="M42.1667 26.8144H43.7656C44.0294 26.8169 44.2883 26.8834 44.5184 27.0077C44.7485 27.132 44.9424 27.3101 45.0821 27.5257L45.2559 27.7867L45.56 27.5273C45.7305 27.3791 45.9336 27.27 46.1541 27.2083C46.3746 27.1465 46.6067 27.1337 46.8331 27.1709L48.1905 27.3985C48.1905 27.3985 47.0703 29.9774 44.9283 29.6628C42.6489 29.3281 42.1667 26.8144 42.1667 26.8144Z" fill="#0C42F9"/>
<path d="M47.4835 6.77446C46.9722 6.70299 46.456 6.67656 45.9404 6.69546L43.2619 9.97355L46.2199 11.8616L54.6742 20.4895L54.8015 19.901C54.9735 19.0755 55.1223 18.1905 55.2367 17.2381C55.8551 12.0879 52.4722 7.41534 47.4835 6.77446Z" fill="#02103F"/>
<path d="M47.1005 6.77464C42.3556 6.08891 38.1327 9.62332 37.4839 14.6436C37.3471 15.7039 37.2709 16.6913 37.2381 17.6145L50.9286 8.32989C49.7928 7.48624 48.4779 6.95206 47.1005 6.77464Z" fill="#02103F"/>
<path d="M46 12.127C46 12.127 46.3451 20.4894 54.2143 20.4894L48.142 10.7144L46 12.127Z" fill="#CEB189"/>
<path d="M36.6905 25.0893C37.2954 25.0893 37.7857 24.5745 37.7857 23.9393C37.7857 23.3042 37.2954 22.7893 36.6905 22.7893C36.0856 22.7893 35.5952 23.3042 35.5952 23.9393C35.5952 24.5745 36.0856 25.0893 36.6905 25.0893Z" fill="#02103F"/>
<path d="M53.3929 27.3894C53.8465 27.3894 54.2143 26.8745 54.2143 26.2394C54.2143 25.6042 53.8465 25.0894 53.3929 25.0894C52.9392 25.0894 52.5714 25.6042 52.5714 26.2394C52.5714 26.8745 52.9392 27.3894 53.3929 27.3894Z" fill="#02103F"/>
<path d="M23.574 63.0395H8.21429V61.8895H23.574C23.7123 61.8895 23.8448 61.95 23.9426 62.0579C24.0403 62.1657 24.0952 62.312 24.0952 62.4645C24.0952 62.617 24.0403 62.7632 23.9426 62.871C23.8448 62.9789 23.7123 63.0395 23.574 63.0395Z" fill="#0C42F9"/>
<path d="M23.574 59.0144H8.21429V57.2894H23.574C23.7123 57.2894 23.8448 57.3803 23.9426 57.542C24.0403 57.7038 24.0952 57.9231 24.0952 58.1519C24.0952 58.3806 24.0403 58.6 23.9426 58.7618C23.8448 58.9235 23.7123 59.0144 23.574 59.0144Z" fill="#0C42F9"/>
<path d="M23.574 54.4143H8.21429V53.2643H23.574C23.6424 53.2642 23.7102 53.279 23.7734 53.3078C23.8367 53.3366 23.8941 53.3789 23.9425 53.4323C23.9909 53.4857 24.0294 53.549 24.0556 53.6188C24.0818 53.6886 24.0952 53.7634 24.0952 53.8389C24.0952 53.9915 24.0403 54.1379 23.9426 54.2458C23.8448 54.3537 23.7123 54.4143 23.574 54.4143Z" fill="#0C42F9"/>
<path d="M23.574 50.3895H8.21429V49.2395H23.574C23.6424 49.2394 23.7102 49.2542 23.7734 49.283C23.8367 49.3118 23.8941 49.3541 23.9425 49.4075C23.9909 49.4608 24.0294 49.5242 24.0556 49.594C24.0818 49.6637 24.0952 49.7385 24.0952 49.8141C24.0952 49.9667 24.0403 50.113 23.9426 50.221C23.8448 50.3289 23.7123 50.3895 23.574 50.3895Z" fill="#0C42F9"/>
</svg>
