<svg width="68" height="93" viewBox="0 0 68 93" fill="none" xmlns="http://www.w3.org/2000/svg">
<path d="M51.9688 46.4259V18.783C51.9688 8.61041 44.1155 0.364441 34.4273 0.364441C24.7397 0.364441 16.8876 8.61041 16.8876 18.783V88.9878H51.9688V46.4259Z" fill="#A7E1FF"/>
<path d="M59.5157 1.37296V26.7343" stroke="#0C42F9" stroke-width="11" stroke-miterlimit="10"/>
<path d="M51.7534 39.1833H61.1456C64.0184 39.1833 65.9473 36.0893 64.7983 33.3253L59.9264 21.6003C59.8896 21.5116 59.829 21.4362 59.752 21.3832C59.675 21.3303 59.5849 21.302 59.4929 21.302C59.4008 21.302 59.3107 21.3303 59.2337 21.3832C59.1567 21.4362 59.0961 21.5116 59.0593 21.6003L51.7534 39.1833Z" fill="#FC503C"/>
<path d="M7.20188 13.4901H6.84064C6.53112 13.49 6.22461 13.554 5.93862 13.6783C5.65263 13.8026 5.39277 13.9848 5.17388 14.2146C4.95498 14.4444 4.78134 14.7172 4.66287 15.0175C4.5444 15.3177 4.48343 15.6395 4.48343 15.9645V33.5841H7.25497L7.20188 13.4901Z" fill="#FC503C"/>
<path d="M4.48345 90.5518C3.45224 90.5518 2.46326 90.1216 1.73408 89.356C1.00489 88.5904 0.595245 87.5519 0.595245 86.4692C0.595245 85.3864 1.00489 84.3479 1.73408 83.5823C2.46326 82.8167 3.45224 82.3865 4.48345 82.3865V90.5518Z" fill="#0C42F9"/>
<path d="M61.3506 39.1833C61.3642 39.579 61.3017 39.9736 61.1669 40.3434C61.0321 40.7133 60.8276 41.0508 60.5658 41.3358C60.304 41.6208 59.9901 41.8475 59.643 42.0023C59.2959 42.1572 58.9226 42.237 58.5455 42.237C58.1683 42.237 57.7951 42.1572 57.448 42.0023C57.1008 41.8475 56.787 41.6208 56.5252 41.3358C56.2634 41.0508 56.0589 40.7133 55.9241 40.3434C55.7892 39.9736 55.7268 39.579 55.7404 39.1833H61.3506Z" fill="#A7E1FF"/>
<path d="M18.2356 73.209C22.1981 73.209 25.4103 69.8361 25.4103 65.6755C25.4103 61.5148 22.1981 58.142 18.2356 58.142C14.2731 58.142 11.0608 61.5148 11.0608 65.6755C11.0608 69.8361 14.2731 73.209 18.2356 73.209Z" fill="#FC503C"/>
<path d="M16.8858 80.5752H4.48343V92.363H16.8858V80.5752Z" fill="#CEB189"/>
<path d="M29.2808 23.4493C29.113 27.4172 25.8759 28.2124 25.8759 28.2124V39.2147L36.3775 39.5523L37.7565 28.4731L29.2808 23.4493Z" fill="#CEB189"/>
<path d="M48.2728 31.8773V42.5451C48.2728 43.0548 48.3684 43.5594 48.5541 44.0302C48.7399 44.5011 49.0121 44.9289 49.3553 45.2893C49.6985 45.6496 50.106 45.9355 50.5544 46.1305C51.0028 46.3255 51.4834 46.4259 51.9688 46.4259H58.9574C61.1521 46.4259 63.257 47.3413 64.8089 48.9707C66.3609 50.6002 67.2328 52.8102 67.233 55.1146V84.6066C67.233 85.6252 67.0419 86.6338 66.6707 87.5749C66.2994 88.5159 65.7553 89.371 65.0694 90.0912C64.3834 90.8115 63.5691 91.3828 62.6728 91.7726C61.7766 92.1624 60.816 92.3631 59.8459 92.3631H33.8354L26.7119 84.3426C23.8753 82.5442 21.8009 79.6751 20.9137 76.3228C20.0264 72.9706 20.3934 69.389 21.9395 66.3117L22.8548 64.4946V46.2055H30.2285C31.6107 46.2054 32.9459 45.6787 33.9863 44.7232C35.0267 43.7678 35.7016 42.4484 35.8857 41.01L48.2728 31.8773Z" fill="#D04837"/>
<path d="M22.85 46.2055V64.4946L21.9347 66.3117C20.389 69.3896 20.0227 72.9717 20.9109 76.324C21.7991 79.6763 23.8745 82.545 26.7119 84.3426L33.8379 92.3631H59.8459C61.8051 92.3631 63.684 91.5459 65.0694 90.0913C66.4547 88.6366 67.233 86.6637 67.233 84.6066V55.1146C67.2328 52.8102 66.3609 50.6002 64.8089 48.9707C63.257 47.3413 61.1522 46.4259 58.9574 46.4259H51.9688V61.072C51.9688 67.7027 46.8492 73.0783 40.5342 73.0783C34.2192 73.0783 29.1003 67.7027 29.1003 61.072V46.2074L22.85 46.2055Z" fill="#02103F"/>
<path d="M42.7187 24.9198C46.0486 26.3203 48.26 29.6706 48.26 33.4367V39.1833H51.7534C53.2404 39.183 54.6687 38.5737 55.7345 37.4849C56.8003 36.3961 57.4196 34.9136 57.4606 33.3528C57.4981 31.9078 57.0375 30.4971 56.1633 29.3804L46.8113 17.2408C46.8113 17.2408 35.6617 21.9507 42.7187 24.9198Z" fill="#CEB189"/>
<path d="M2.8298 43.2281L6.30796 52.2846C7.14055 54.4515 8.6975 56.2251 10.6868 57.2725L11.0602 57.4692V65.6755H18.5657V61.926L22.8524 64.4946L25.2285 59.342C26.1126 57.4245 26.5715 55.3216 26.5709 53.1912V48.3923L2.8298 43.2281Z" fill="#FC503C"/>
<path d="M25.4634 11.9498H8.30759C7.69694 11.9498 7.2019 12.4696 7.2019 13.1108V49.3527C7.2019 49.9939 7.69694 50.5137 8.30759 50.5137H25.4634C26.0741 50.5137 26.5691 49.9939 26.5691 49.3527V13.1108C26.5691 12.4696 26.0741 11.9498 25.4634 11.9498Z" fill="#CEB189"/>
<path d="M26.5697 46.2055C26.5697 43.1941 26.9182 41.7513 27.6071 38.8296L29.0008 32.9293C29.174 32.1973 29.1152 31.426 28.8333 30.7323C28.5514 30.0385 28.0618 29.4602 27.4387 29.085L26.5679 28.5603L26.5697 46.2055Z" fill="#FC503C"/>
<path d="M67.233 76.6022H59.7403C59.0503 76.6022 58.3671 76.7449 57.7296 77.0222C57.0922 77.2995 56.513 77.7059 56.0251 78.2182C55.5372 78.7305 55.1502 79.3387 54.8862 80.0081C54.6222 80.6775 54.4864 81.3949 54.4865 82.1194C54.4865 82.1194 41.8254 78.5743 28.6713 83.9134C25.8776 85.0412 22.7918 85.0826 19.9716 84.03L11.4569 80.8668C10.9289 80.6708 10.3687 80.589 9.80991 80.6262C9.25109 80.6634 8.70521 80.8189 8.2051 81.0833L3.4022 83.6218C3.2392 83.708 3.11487 83.8579 3.05589 84.0393C2.99691 84.2206 3.00798 84.419 3.08673 84.5919C3.16701 84.7578 3.30306 84.8865 3.46854 84.9532C3.63401 85.0198 3.81715 85.0196 3.9825 84.9526L7.33861 83.6552C8.25504 83.3012 9.24337 83.2037 10.2066 83.372L12.2007 83.7205C12.2296 83.725 12.2559 83.7407 12.2742 83.7646C12.2925 83.7884 12.3016 83.8187 12.2996 83.8493C12.2976 83.8799 12.2847 83.9086 12.2634 83.9296C12.2421 83.9507 12.2141 83.9625 12.1848 83.9627L9.08562 84.0627C8.16889 84.0924 7.2733 84.3591 6.47823 84.8392L3.35399 86.7261C3.18903 86.8265 3.06528 86.9874 3.00658 87.1778C2.94788 87.3683 2.95839 87.5748 3.03608 87.7576C3.12162 87.9499 3.27436 88.1002 3.46262 88.1774C3.65087 88.2546 3.8602 88.2527 4.04718 88.1722L6.60027 87.1099C7.43379 86.7632 8.32893 86.6102 9.22414 86.6614L11.7943 86.8075C11.8254 86.8088 11.855 86.822 11.8775 86.8446C11.9001 86.8672 11.914 86.8977 11.9166 86.9303C11.9193 86.9629 11.9106 86.9954 11.8922 87.0217C11.8737 87.048 11.8467 87.0664 11.8163 87.0734L4.30042 88.9071C4.12784 88.9493 3.97641 89.0574 3.87567 89.2105C3.77492 89.3635 3.73208 89.5505 3.75551 89.7349C3.77904 89.9249 3.87106 90.0981 4.01262 90.219C4.15418 90.3399 4.3345 90.3991 4.51643 90.3846L11.6399 89.8079C11.6519 89.8079 11.6635 89.8125 11.6725 89.8209C11.6815 89.8293 11.6872 89.8408 11.6886 89.8534C11.6899 89.8659 11.6868 89.8785 11.6799 89.8888C11.6729 89.8991 11.6626 89.9064 11.6509 89.9092L5.48787 90.9016C5.30938 90.9302 5.14831 91.0301 5.03826 91.1804C4.9282 91.3307 4.87767 91.5198 4.89719 91.7083C4.92007 91.8916 5.0063 92.0598 5.1395 92.1807C5.2727 92.3017 5.44359 92.367 5.61967 92.3644H61.0596C62.6969 92.3644 64.2671 91.6814 65.4249 90.4658C66.5826 89.2502 67.233 87.6014 67.233 85.8823V76.6022Z" fill="#FC503C"/>
<path d="M5.07413 66.6853C7.41547 71.5207 11.3421 74.3738 8.10439 80.5247H12.1647C17.6858 74.8928 17.5473 70.6756 16.4263 66.6853H5.07413Z" fill="#A7E1FF"/>
<path d="M39.2156 13.5401C36.5776 13.5401 34.0478 14.6404 32.1825 16.599C30.3172 18.5575 29.2693 21.2139 29.2693 23.9837C29.2693 29.9186 33.3576 42.3901 39.2156 42.3901C43.6029 42.3901 49.1618 36.3129 49.1618 23.9837C49.1618 21.2139 48.1139 18.5575 46.2486 16.599C44.3834 14.6404 41.8535 13.5401 39.2156 13.5401Z" fill="#FC503C"/>
<path d="M39.2155 13.5401C37.7053 13.538 36.2147 13.8985 34.8575 14.5941C35.0363 15.7538 36.3061 22.2186 42.7187 24.9198C45.6892 26.1685 47.7639 28.9672 48.1819 32.229C48.8012 29.8885 50.0948 27.6588 50.0948 24.5027C50.0948 21.9322 48.2789 19.0605 46.8113 17.2409C45.8786 16.0801 44.7154 15.1474 43.4033 14.5082C42.0913 13.8689 40.662 13.5385 39.2155 13.5401Z" fill="#CEB189"/>
<path d="M29.8007 28.477C29.4084 22.594 34.8874 21.1088 34.8575 14.5941C33.181 15.4518 31.7679 16.7872 30.7796 18.4479C29.7912 20.1085 29.2675 22.0274 29.268 23.9856C29.268 25.2478 29.4535 26.806 29.8007 28.477Z" fill="#CEB189"/>
<path d="M35.093 36.2053L35.9113 35.7087C36.1249 35.5778 36.3708 35.5168 36.6177 35.5333C36.8645 35.5499 37.101 35.6433 37.2971 35.8016C37.343 35.854 37.4002 35.8942 37.4638 35.9188C37.5275 35.9434 37.5958 35.9517 37.6631 35.943C37.7305 35.9344 37.7949 35.909 37.851 35.8691C37.9071 35.8291 37.9534 35.7757 37.986 35.7132L38.0311 35.6261C38.1282 35.4322 38.2676 35.2652 38.4379 35.1388C38.6083 35.0124 38.8047 34.9302 39.0111 34.8989L41.5441 34.5478C41.5441 34.5478 40.3603 37.8628 38.4815 38.3446C36.7845 38.7797 35.093 36.2053 35.093 36.2053Z" fill="#0C42F9"/>
<path d="M26.5691 16.258H7.2019V46.2055H26.5691V16.258Z" fill="#0C42F9"/>
<path d="M5.00213 35.8682H11.0157C11.5211 35.8684 12.0059 36.0793 12.3632 36.4547C12.7206 36.8301 12.9213 37.3391 12.9213 37.8698C12.9213 38.4007 12.7205 38.9099 12.363 39.2854C12.0056 39.6608 11.5207 39.8719 11.0151 39.872H8.26915C8.12871 39.872 7.98963 39.9009 7.85985 39.9573C7.73007 40.0137 7.61215 40.0963 7.51281 40.2006C7.41347 40.3048 7.33467 40.4286 7.28091 40.5648C7.22714 40.7011 7.19947 40.8471 7.19947 40.9946V47.6689H4.59329L1.77782 40.5787C1.59906 40.1286 1.54471 39.6347 1.62101 39.1537C1.69732 38.6726 1.90118 38.2239 2.20923 37.8589L3.15322 36.7409C3.38521 36.4665 3.66992 36.2469 3.98861 36.0965C4.3073 35.9461 4.65273 35.8683 5.00213 35.8682Z" fill="#FC503C"/>
<path d="M3.1532 36.7409L1.70153 34.3472C1.37441 33.8075 1.21656 33.1738 1.25017 32.5351C1.28377 31.8963 1.50713 31.2847 1.88886 30.7861L3.68774 28.4379C4.08011 27.9259 4.61908 27.5602 5.22484 27.3948L10.1717 26.0429C10.4436 25.9687 10.7272 25.955 11.0044 26.0027C11.2816 26.0503 11.5462 26.1584 11.7812 26.3199C12.0163 26.4813 12.2165 26.6927 12.3692 26.9403C12.5218 27.1878 12.6234 27.4662 12.6675 27.7575C12.7395 28.2342 12.6541 28.7225 12.4253 29.1411C12.1965 29.5598 11.8382 29.8837 11.4098 30.0589L7.25498 31.7594V35.8689L3.1532 36.7409Z" fill="#FC503C"/>
<path d="M16.8858 49.6096C17.5251 49.6096 18.0434 49.0655 18.0434 48.3942C18.0434 47.7229 17.5251 47.1788 16.8858 47.1788C16.2465 47.1788 15.7282 47.7229 15.7282 48.3942C15.7282 49.0655 16.2465 49.6096 16.8858 49.6096Z" fill="#0C42F9"/>
<path d="M9.29486 24.1522V18.9118C10.5153 19.0399 11.7967 18.6049 12.8822 19.4987C12.7602 19.8639 12.6449 20.2035 12.5216 20.5719C12.2836 20.1676 11.9724 19.8703 11.516 19.8267C11.098 19.787 10.677 19.778 10.2382 19.7543V23.3186C10.7459 23.2808 11.2628 23.3084 11.7473 23.1905C12.3483 23.0425 12.6565 22.4037 12.6986 21.5547C12.7175 21.1665 12.748 20.7615 12.8706 20.4015C13.1757 19.5045 13.847 19.0348 14.7281 18.974C15.4927 18.9214 16.2621 18.9631 17.0469 18.9631V24.1061C17.0353 24.1163 17.0206 24.1413 17.006 24.1407C16.1242 24.1073 15.2401 24.0952 14.3608 24.0228C14.0996 24.001 13.8457 23.8197 13.6017 23.6851C13.5651 23.655 13.5364 23.6158 13.518 23.571C13.4997 23.5263 13.4924 23.4774 13.4967 23.4288C13.5797 23.1226 13.6938 22.8266 13.8061 22.4966C14.0428 22.8977 14.3516 23.2135 14.8099 23.2507C15.2297 23.2847 15.6538 23.2578 16.0992 23.2578V19.7909C15.7038 19.7909 15.306 19.7409 14.9221 19.8011C14.0764 19.9344 13.6944 20.4758 13.6462 21.4298C13.6308 21.8505 13.5675 22.2678 13.4577 22.6728C13.2667 23.3321 12.8108 23.7697 12.1872 23.9657C11.8271 24.0721 11.456 24.1322 11.0821 24.1445C10.4982 24.1733 9.91116 24.1522 9.29486 24.1522Z" fill="#CEB189"/>
<path d="M49.5097 34.5471C50.3107 34.5471 50.9601 33.8653 50.9601 33.0242C50.9601 32.183 50.3107 31.5012 49.5097 31.5012C48.7086 31.5012 48.0592 32.183 48.0592 33.0242C48.0592 33.8653 48.7086 34.5471 49.5097 34.5471Z" fill="#0C42F9"/>
<path d="M22.3837 20.6609V18.9118H20.7179V20.6609H19.052V22.4101H20.7179V24.1592H22.3837V22.4101H24.0502V20.6609H22.3837Z" fill="#FC503C"/>
<path d="M21.5465 42.9859C22.963 42.9859 24.1112 41.7803 24.1112 40.293C24.1112 38.8058 22.963 37.6001 21.5465 37.6001C20.1301 37.6001 18.9818 38.8058 18.9818 40.293C18.9818 41.7803 20.1301 42.9859 21.5465 42.9859Z" fill="#FC503C"/>
<path d="M21.5466 38.5907V39.5325C21.5464 39.7647 21.6341 39.9874 21.7902 40.1518C21.9464 40.3162 22.1584 40.4087 22.3795 40.409H22.8957" stroke="#CEB189" stroke-width="11" stroke-miterlimit="10"/>
<path d="M20.6796 29.147C20.3054 28.7541 19.6989 28.7541 19.3247 29.147C18.9506 29.5398 18.9506 30.1767 19.3247 30.5695L22.034 33.4143C22.4081 33.8071 23.0147 33.8071 23.3888 33.4143C23.7629 33.0214 23.7629 32.3845 23.3888 31.9917L20.6796 29.147Z" fill="#FC503C"/>
<path d="M22.0335 30.5695L20.6788 31.9919L19.3162 30.5612C19.1366 30.3726 19.0357 30.1168 19.0357 29.85C19.0357 29.5833 19.1366 29.3275 19.3162 29.1388C19.4959 28.9502 19.7395 28.8443 19.9936 28.8443C20.2476 28.8443 20.4912 28.9502 20.6709 29.1388L22.0335 30.5695Z" fill="#CEB189"/>
</svg>
