<svg width="28" height="27" viewBox="0 0 28 27" fill="none" xmlns="http://www.w3.org/2000/svg">
<path fill-rule="evenodd" clip-rule="evenodd" d="M24.6667 13.6053C24.6667 19.4963 19.891 24.272 14 24.272C8.10897 24.272 3.33334 19.4963 3.33334 13.6053C3.33335 7.71427 8.10897 2.93864 14 2.93864C19.891 2.93864 24.6667 7.71427 24.6667 13.6053ZM27.3333 13.6053C27.3333 20.9691 21.3638 26.9386 14 26.9386C6.63621 26.9386 0.666678 20.9691 0.666679 13.6053C0.666679 6.24151 6.63621 0.271972 14 0.271972C21.3638 0.271972 27.3333 6.24151 27.3333 13.6053ZM12.6667 6.93864L12.6667 13.6053L12.6667 14.9386L14 14.9386L20.6667 14.9386L20.6667 12.272L15.3333 12.272L15.3333 6.93864L12.6667 6.93864Z" fill="#0037FF"/>
</svg>
