<svg width="22" height="22" viewBox="0 0 22 22" fill="none" xmlns="http://www.w3.org/2000/svg">
<path d="M11.0001 5.61006C8.00006 5.61006 5.61006 8.04706 5.61006 11.0001C5.61006 14.0001 8.00006 16.3901 11.0001 16.3901C13.9531 16.3901 16.3901 14.0001 16.3901 11.0001C16.3901 8.04706 13.9531 5.61006 11.0001 5.61006ZM11.0001 14.5161C10.5381 14.5168 10.0806 14.4264 9.65361 14.25C9.22668 14.0736 8.83876 13.8147 8.51211 13.488C8.18546 13.1614 7.92651 12.7734 7.75009 12.3465C7.57368 11.9196 7.48327 11.462 7.48406 11.0001C7.48406 9.07806 9.03106 7.53106 11.0001 7.53106C11.456 7.52987 11.9076 7.61879 12.329 7.7927C12.7504 7.96662 13.1333 8.2221 13.4557 8.54446C13.778 8.86682 14.0335 9.24971 14.2074 9.67113C14.3813 10.0925 14.4703 10.5442 14.4691 11.0001C14.4691 12.9691 12.9221 14.5161 11.0001 14.5161ZM17.8441 5.42206C17.8449 5.25558 17.8127 5.0906 17.7493 4.93664C17.686 4.78269 17.5927 4.64281 17.475 4.52509C17.3573 4.40737 17.2174 4.31415 17.0635 4.25081C16.9095 4.18747 16.7445 4.15527 16.5781 4.15606C16.4117 4.1554 16.2468 4.1877 16.093 4.2511C15.9391 4.3145 15.7994 4.40774 15.6817 4.52545C15.5641 4.64315 15.471 4.78299 15.4077 4.93688C15.3444 5.09077 15.3123 5.25567 15.3131 5.42206C15.3123 5.58845 15.3444 5.75335 15.4077 5.90724C15.471 6.06113 15.5641 6.20097 15.6817 6.31867C15.7994 6.43638 15.9391 6.52962 16.093 6.59302C16.2468 6.65642 16.4117 6.68872 16.5781 6.68806C16.7445 6.68885 16.9095 6.65665 17.0635 6.59331C17.2174 6.52997 17.3573 6.43675 17.475 6.31903C17.5927 6.20131 17.686 6.06143 17.7493 5.90748C17.8127 5.75352 17.8449 5.58854 17.8441 5.42206ZM21.4061 6.68806C21.3131 5.00006 20.9381 3.50006 19.7201 2.28006C18.5001 1.06206 17.0001 0.68706 15.3121 0.59406C13.5791 0.50006 8.37506 0.50006 6.64206 0.59406C4.95306 0.68806 3.50006 1.06306 2.23406 2.28006C1.01606 3.50006 0.641062 5.00006 0.547063 6.68706C0.453063 8.42206 0.453063 13.6251 0.547063 15.3591C0.641062 17.0471 1.01606 18.5001 2.23406 19.7661C3.50006 20.9841 4.95406 21.3591 6.64106 21.4531C8.37506 21.5471 13.5781 21.5471 15.3121 21.4531C17.0001 21.3591 18.5001 20.9841 19.7191 19.7661C20.9371 18.5001 21.3121 17.0461 21.4061 15.3591C21.5001 13.6251 21.5001 8.42206 21.4061 6.68806ZM19.1561 17.1881C18.8281 18.1251 18.0781 18.8281 17.1881 19.2031C15.7811 19.7661 12.5001 19.6251 11.0001 19.6251C9.45306 19.6251 6.17206 19.7651 4.81206 19.2031C4.35534 19.0244 3.94055 18.7531 3.59377 18.4064C3.24698 18.0596 2.97573 17.6448 2.79706 17.1881C2.23406 15.8281 2.37506 12.5471 2.37506 11.0001C2.37506 9.50006 2.23506 6.21906 2.79706 4.81206C2.98419 4.36591 3.25895 3.96185 3.60507 3.6238C3.95119 3.28576 4.36162 3.02061 4.81206 2.84406C6.17206 2.28106 9.45306 2.42206 11.0001 2.42206C12.5001 2.42206 15.7811 2.28206 17.1881 2.84406C18.0781 3.17206 18.7811 3.92206 19.1561 4.81306C19.7191 6.21906 19.5781 9.50006 19.5781 11.0001C19.5781 12.5471 19.7181 15.8281 19.1561 17.1881Z" fill="#0037FF"/>
</svg>
