<svg width="426" height="386" viewBox="0 0 426 386" fill="none" xmlns="http://www.w3.org/2000/svg">
<g filter="url(#filter0_dd_3444_21614)">
<path d="M399.71 325.951L370.866 273.147C367.25 266.529 365.36 259.159 365.36 251.675V214.352H337.015L328.768 253.679C328.768 261.162 308.95 275.109 308.95 275.109L308.678 353.595H382.463C397.147 353.595 406.565 338.502 399.71 325.951Z" fill="#A7E1FF"/>
<path d="M372.693 353.595H382.466C397.156 353.595 406.573 338.502 399.719 325.951L383.729 296.681H302.948V353.6H372.693V353.595Z" fill="#0C42F9"/>
<path d="M326.086 176.077C319.534 164.307 308.577 155.399 295.455 151.174L271.437 143.438C267.949 142.315 264.731 140.522 261.979 138.166C258.906 135.543 177.205 132.726 177.205 132.726L142.377 141.822C127.225 145.78 113.741 154.234 103.827 165.991L29.5047 257.128L121.424 239.176V353.605H317.898L318.17 275.119L340.952 252.299L326.086 176.077Z" fill="#A7E1FF"/>
<path d="M345.084 353.595V208.379C345.084 196.317 341.151 184.562 333.845 174.782C326.538 165.002 316.228 157.695 304.378 153.899L269.401 142.693V353.584H345.084V353.595Z" fill="#CEB189"/>
<path d="M345.084 296.647H306.385V353.598H345.084V296.647Z" fill="#FC503C"/>
<path d="M176.953 132.797C181.201 139.808 187.163 145.707 194.318 149.976C201.472 154.245 209.601 156.755 217.991 157.285C226.382 157.815 234.78 156.35 242.449 153.018C250.118 149.686 256.825 144.588 261.982 138.171C261.95 138.142 261.874 138.053 261.741 137.93C251.473 128.442 250.882 115.802 256.118 104.617L259.148 98.1596L222.585 80.5853L198.731 96.6461C195.894 119.878 191.751 128.579 177.205 132.741L176.953 132.797Z" fill="#D04837"/>
<path d="M121.419 227.522H70.7699V271.219C60.2424 273.085 50.8142 278.679 44.3306 286.907C37.8469 295.135 34.7744 305.405 35.7143 315.706C36.6541 326.008 41.5388 335.6 49.4123 342.605C57.2858 349.61 67.5814 353.525 78.2844 353.582C102.088 353.663 121.409 319.648 121.409 296.663L121.419 227.522Z" fill="#0C42F9"/>
<path d="M169.91 353.595V134.698L142.61 140.015C123.759 143.683 107.007 154.028 95.6448 169.018L31.1607 253.283L121.419 239.165V353.595H169.91Z" fill="#CEB189"/>
<path d="M80.5811 353.598H121.419V308.364" fill="#A7E1FF"/>
<path d="M38.5311 296.681C36.1841 302.362 35.1652 308.474 35.5472 314.58C35.9292 320.685 37.7026 326.634 40.7408 332.001C43.7789 337.367 48.0067 342.019 53.1218 345.623C58.237 349.227 64.1131 351.695 70.3301 352.85C76.5471 354.005 82.9515 353.818 89.0852 352.304C95.2189 350.789 100.93 347.984 105.812 344.088C110.693 340.193 114.623 335.303 117.321 329.77C120.019 324.236 121.418 318.195 121.419 312.078V296.681H38.5311Z" fill="#A7E1FF"/>
<path d="M121.418 296.681H132.916V337.214C132.916 337.944 132.767 338.666 132.478 339.339C132.189 340.013 131.766 340.625 131.232 341.141C130.699 341.657 130.065 342.066 129.368 342.345C128.67 342.624 127.923 342.767 127.168 342.767C125.644 342.767 124.182 342.182 123.104 341.141C122.027 340.1 121.421 338.687 121.421 337.214V296.681H121.418Z" fill="#E5FB35"/>
<path d="M306.385 296.681H317.882V337.13C317.882 337.86 317.733 338.582 317.445 339.255C317.156 339.929 316.732 340.541 316.199 341.057C315.665 341.573 315.032 341.982 314.334 342.261C313.637 342.54 312.89 342.683 312.135 342.683C311.38 342.684 310.632 342.54 309.935 342.261C309.237 341.983 308.603 341.574 308.069 341.058C307.535 340.542 307.112 339.93 306.823 339.256C306.534 338.582 306.385 337.86 306.385 337.13V296.681Z" fill="#E5FB35"/>
<path d="M269.401 296.681H280.892V337.214C280.892 338.687 280.287 340.1 279.209 341.141C278.131 342.182 276.669 342.767 275.145 342.767C273.621 342.767 272.159 342.182 271.081 341.141C270.004 340.1 269.398 338.687 269.398 337.214V296.681H269.401Z" fill="#E5FB35"/>
<path d="M232.407 296.681H243.904V337.214C243.904 337.944 243.755 338.666 243.467 339.339C243.178 340.013 242.754 340.625 242.221 341.141C241.687 341.657 241.054 342.066 240.356 342.345C239.659 342.624 238.912 342.767 238.157 342.767C236.633 342.767 235.171 342.182 234.093 341.141C233.015 340.1 232.41 338.687 232.41 337.214V296.681H232.407Z" fill="#E5FB35"/>
<path d="M195.41 296.681H206.907V337.214C206.907 337.944 206.758 338.666 206.469 339.339C206.181 340.013 205.757 340.625 205.224 341.141C204.69 341.657 204.056 342.066 203.359 342.345C202.662 342.624 201.915 342.767 201.16 342.767C199.636 342.767 198.174 342.182 197.096 341.141C196.018 340.1 195.413 338.687 195.413 337.214V296.681H195.41Z" fill="#E5FB35"/>
<path d="M158.416 296.681H169.913V337.214C169.914 337.944 169.765 338.668 169.476 339.342C169.187 340.017 168.763 340.629 168.228 341.145C167.694 341.661 167.059 342.071 166.361 342.349C165.662 342.628 164.914 342.771 164.158 342.77C163.403 342.77 162.656 342.626 161.959 342.347C161.261 342.068 160.628 341.659 160.094 341.144C159.561 340.628 159.137 340.016 158.848 339.342C158.56 338.668 158.411 337.946 158.411 337.217V296.681H158.416Z" fill="#E5FB35"/>
<path d="M317.892 342.77H121.418V353.597H317.892V342.77Z" fill="#0C42F9"/>
<path d="M121.418 296.681V276.901H132.916V296.681" fill="#FC503C"/>
<path d="M158.416 296.681V276.901H169.911V296.681" fill="#FC503C"/>
<path d="M195.41 296.681V276.901H206.907V296.681" fill="#FC503C"/>
<path d="M232.407 296.681V276.901H243.901V296.681" fill="#FC503C"/>
<path d="M306.385 296.681V276.901H317.879V296.681" fill="#FC503C"/>
<path d="M269.401 314.313V296.681H280.898V314.313" fill="#E5FB35"/>
<path d="M306.385 314.313V296.681H317.879V314.313" fill="#E5FB35"/>
<path d="M275.339 69.7209H275.322C274.795 69.9046 274.312 70.191 273.904 70.5625C273.495 70.9339 273.17 71.3824 272.949 71.8802C272.728 72.378 272.614 72.9144 272.616 73.4562C272.618 73.998 272.735 74.5337 272.961 75.0299C273.229 75.6227 273.343 76.27 273.292 76.9152C273.242 77.5604 273.028 78.1838 272.67 78.7306C272.312 79.2775 271.821 79.7311 271.239 80.0517C270.657 80.3724 270.003 80.5502 269.334 80.5697C268.773 80.5862 268.222 80.7138 267.715 80.9444C267.208 81.1751 266.755 81.5041 266.384 81.9108C266.014 82.3176 265.734 82.7935 265.562 83.3092C265.39 83.8248 265.329 84.369 265.384 84.9082C265.449 85.5517 265.349 86.2007 265.094 86.7985C264.839 87.3963 264.437 87.9247 263.922 88.3372C263.406 88.7498 262.794 89.0341 262.139 89.1653C261.484 89.2964 260.806 89.2703 260.163 89.0893C259.625 88.9377 259.059 88.8946 258.503 88.9627C257.946 89.0309 257.41 89.2088 256.928 89.4855C256.445 89.7623 256.027 90.1318 255.699 90.5713C255.37 91.0107 255.139 91.5107 255.019 92.0402C254.876 92.6721 254.574 93.2605 254.141 93.7538C253.708 94.2471 253.157 94.6303 252.535 94.8698C251.913 95.1092 251.24 95.1977 250.574 95.1274C249.909 95.0571 249.271 94.8302 248.718 94.4665C248.254 94.1618 247.731 93.9524 247.18 93.8512C246.629 93.7499 246.062 93.7591 245.515 93.8782C244.969 93.9972 244.453 94.2235 244 94.5431C243.547 94.8627 243.167 95.2688 242.884 95.7361C242.545 96.297 242.069 96.7689 241.498 97.1102C240.926 97.4514 240.276 97.6516 239.606 97.6931C238.935 97.7346 238.264 97.616 237.652 97.3479C237.041 97.0798 236.506 96.6704 236.097 96.1557C235.754 95.7273 235.323 95.3714 234.832 95.1103C234.341 94.8491 233.799 94.6882 233.241 94.6376C232.683 94.5869 232.12 94.6476 231.587 94.8158C231.054 94.984 230.563 95.2561 230.143 95.6154C229.643 96.0445 229.041 96.3486 228.391 96.5009C227.741 96.6533 227.062 96.6493 226.414 96.4893C225.766 96.3293 225.168 96.0182 224.674 95.5833C224.179 95.1483 223.802 94.6027 223.576 93.9944C223.386 93.4846 223.09 93.0181 222.705 92.6236C222.321 92.2291 221.856 91.9152 221.341 91.7012C220.826 91.4873 220.271 91.3778 219.71 91.3798C219.149 91.3817 218.595 91.4949 218.081 91.7123C217.468 91.9717 216.798 92.0817 216.13 92.0327C215.462 91.9837 214.817 91.7773 214.25 91.4314C213.684 91.0856 213.215 90.6109 212.882 90.0489C212.55 89.4869 212.366 88.8548 212.345 88.208C212.328 87.6665 212.196 87.1341 211.957 86.6439C211.718 86.1537 211.378 85.7162 210.957 85.3583C210.536 85.0005 210.043 84.73 209.51 84.5637C208.976 84.3974 208.413 84.3388 207.855 84.3915C207.189 84.4537 206.517 84.3573 205.898 84.1107C205.28 83.8641 204.733 83.4748 204.306 82.9769C203.879 82.479 203.585 81.8876 203.449 81.2544C203.313 80.6213 203.34 79.9656 203.527 79.3448C203.686 78.8236 203.731 78.2764 203.662 77.7374C203.592 77.1984 203.408 76.6791 203.121 76.2116C202.835 75.7442 202.452 75.3387 201.996 75.0204C201.541 74.702 201.022 74.4776 200.473 74.3611C199.82 74.2223 199.211 73.931 198.701 73.5125C198.191 73.094 197.795 72.5611 197.547 71.9605C197.299 71.3598 197.207 70.7096 197.28 70.0668C197.352 69.424 197.586 68.8081 197.962 68.273C198.277 67.8248 198.493 67.3189 198.598 66.7867C198.702 66.2544 198.692 65.7072 198.569 65.1788C198.445 64.6504 198.211 64.1521 197.88 63.7147C197.549 63.2773 197.129 62.9102 196.646 62.6361C196.068 62.309 195.582 61.8498 195.23 61.299C194.879 60.7482 194.673 60.1225 194.63 59.4767C194.587 58.831 194.709 58.1849 194.984 57.5952C195.26 57.0055 195.681 56.4901 196.211 56.0943C196.655 55.7627 197.023 55.3466 197.293 54.8718C197.564 54.397 197.73 53.8736 197.783 53.3341C197.835 52.7945 197.772 52.2504 197.598 51.7352C197.424 51.2201 197.142 50.745 196.77 50.3394C196.326 49.8558 196.012 49.2745 195.854 48.6462C195.696 48.0179 195.7 47.3618 195.866 46.7354C196.032 46.109 196.354 45.5314 196.804 45.0531C197.254 44.5748 197.818 44.2103 198.448 43.9917C198.976 43.8083 199.459 43.5221 199.868 43.1507C200.276 42.7794 200.601 42.3309 200.823 41.8331C201.045 41.3353 201.158 40.7988 201.157 40.2569C201.155 39.7149 201.038 39.1791 200.813 38.6827C200.54 38.0916 200.423 37.4449 200.469 36.7995C200.516 36.1541 200.725 35.5295 201.08 34.9807C201.435 34.4318 201.923 33.9753 202.503 33.6512C203.082 33.3272 203.735 33.1454 204.404 33.1219C204.965 33.105 205.516 32.9772 206.023 32.7464C206.53 32.5157 206.983 32.1868 207.354 31.7801C207.724 31.3735 208.004 30.8977 208.177 30.3823C208.349 29.8668 208.411 29.3227 208.357 28.7834C208.293 28.1398 208.392 27.4908 208.648 26.893C208.903 26.2953 209.306 25.7671 209.821 25.3545C210.336 24.942 210.949 24.6578 211.604 24.5266C212.259 24.3955 212.938 24.4215 213.58 24.6023C214.12 24.7553 214.686 24.7994 215.244 24.7319C215.802 24.6643 216.339 24.4867 216.823 24.2099C217.307 23.9332 217.726 23.5632 218.056 23.1231C218.385 22.6829 218.618 22.182 218.738 21.6514C218.881 21.0195 219.183 20.4311 219.616 19.9378C220.049 19.4445 220.6 19.0613 221.222 18.8219C221.844 18.5824 222.517 18.4939 223.183 18.5642C223.848 18.6345 224.486 18.8615 225.039 19.2251C225.503 19.5298 226.026 19.7393 226.577 19.8405C227.128 19.9417 227.694 19.9325 228.241 19.8135C228.788 19.6944 229.304 19.4681 229.757 19.1485C230.21 18.8289 230.59 18.4229 230.873 17.9556C231.212 17.3973 231.687 16.9278 232.257 16.5883C232.827 16.2488 233.475 16.0495 234.143 16.0081C234.812 15.9667 235.48 16.0843 236.091 16.3507C236.701 16.617 237.234 17.024 237.644 17.5359C237.987 17.9644 238.418 18.3203 238.909 18.5815C239.401 18.8427 239.942 19.0036 240.501 19.0542C241.059 19.1049 241.622 19.0442 242.156 18.876C242.689 18.7078 243.18 18.4356 243.6 18.0762C244.101 17.6477 244.702 17.3442 245.352 17.192C246.002 17.0399 246.681 17.0438 247.329 17.2034C247.977 17.3631 248.575 17.6736 249.07 18.1078C249.565 18.5421 249.943 19.0869 250.17 19.6946V19.7104C250.36 20.2201 250.657 20.6867 251.041 21.0811C251.425 21.4756 251.89 21.7896 252.405 22.0035C252.92 22.2175 253.475 22.3269 254.036 22.325C254.597 22.3231 255.151 22.2099 255.665 21.9924C256.278 21.733 256.948 21.6229 257.616 21.6718C258.284 21.7208 258.929 21.9272 259.495 22.2732C260.061 22.6191 260.53 23.0939 260.862 23.6559C261.194 24.2179 261.378 24.85 261.398 25.4968C261.416 26.0382 261.548 26.5703 261.787 27.0603C262.026 27.5503 262.366 27.9878 262.787 28.3455C263.208 28.7033 263.701 28.9738 264.234 29.1402C264.767 29.3067 265.331 29.3656 265.889 29.3133C266.555 29.251 267.226 29.3474 267.845 29.594C268.464 29.8406 269.01 30.2299 269.437 30.7278C269.864 31.2258 270.159 31.8172 270.294 32.4503C270.43 33.0835 270.403 33.7392 270.216 34.36C270.056 34.881 270.01 35.4283 270.079 35.9675C270.148 36.5068 270.331 37.0265 270.618 37.4942C270.904 37.9619 271.287 38.3675 271.743 38.6857C272.199 39.0039 272.718 39.2279 273.267 39.3437C273.921 39.4822 274.53 39.7735 275.04 40.192C275.55 40.6105 275.946 41.1436 276.194 41.7444C276.442 42.3452 276.533 42.9955 276.46 43.6384C276.387 44.2812 276.152 44.897 275.776 45.4317C275.461 45.8798 275.244 46.3857 275.139 46.918C275.035 47.4503 275.045 47.9977 275.168 48.5262C275.292 49.0548 275.526 49.5532 275.857 49.9905C276.188 50.4278 276.609 50.7948 277.092 51.0686C277.673 51.3955 278.161 51.8554 278.515 52.4076C278.868 52.9599 279.075 53.5877 279.118 54.2356C279.161 54.8835 279.038 55.5316 278.761 56.1229C278.483 56.7142 278.059 57.2304 277.527 57.6262C277.084 57.959 276.717 58.376 276.449 58.8514C276.18 59.3268 276.015 59.8504 275.964 60.3899C275.913 60.9294 275.977 61.4732 276.153 61.9877C276.328 62.5022 276.611 62.9765 276.984 63.3811C277.426 63.8628 277.74 64.4415 277.899 65.067C278.057 65.6925 278.055 66.3459 277.893 66.9705C277.731 67.5951 277.414 68.1721 276.968 68.6514C276.523 69.1307 275.964 69.4978 275.339 69.7209Z" fill="#0C42F9"/>
<path d="M269.674 80.5699C266.543 80.0584 266.981 76.6118 268.186 74.8989C268.566 74.3648 268.804 73.7486 268.88 73.1045C268.955 72.4605 268.866 71.8084 268.62 71.2055C268.373 70.6026 267.977 70.0675 267.467 69.6472C266.956 69.2269 266.346 68.9343 265.691 68.7952C265.142 68.679 264.623 68.4548 264.167 68.1365C263.711 67.8183 263.328 67.4127 263.042 66.9452C262.755 66.4777 262.572 65.9582 262.502 65.419C262.432 64.8799 262.478 64.3327 262.637 63.8114C262.825 63.1906 262.852 62.5347 262.717 61.9012C262.581 61.2678 262.287 60.6761 261.86 60.178C261.433 59.6799 260.886 59.2906 260.267 59.0442C259.648 58.7978 258.976 58.7019 258.31 58.7647C257.752 58.8167 257.188 58.7574 256.655 58.5906C256.122 58.4238 255.63 58.153 255.209 57.7951C254.788 57.4371 254.448 56.9995 254.21 56.5093C253.971 56.0192 253.839 55.487 253.822 54.9456C253.801 54.299 253.616 53.6672 253.284 53.1056C252.951 52.5439 252.482 52.0696 251.916 51.724C251.349 51.3785 250.704 51.1723 250.037 51.1234C249.369 51.0746 248.699 51.1846 248.086 51.4439C247.572 51.6609 247.017 51.7737 246.457 51.7752C245.896 51.7768 245.341 51.6671 244.826 51.4529C244.31 51.2387 243.846 50.9246 243.462 50.5301C243.078 50.1355 242.781 49.669 242.591 49.1592V49.1461C242.364 48.5381 241.987 47.9931 241.492 47.5585C240.997 47.124 240.399 46.8132 239.751 46.6533C239.103 46.4934 238.424 46.4892 237.774 46.6412C237.124 46.7932 236.522 47.0966 236.021 47.5251C235.601 47.8844 235.11 48.1566 234.577 48.3249C234.043 48.4931 233.48 48.5538 232.922 48.5031C232.363 48.4524 231.822 48.2915 231.33 48.0304C230.839 47.7692 230.408 47.4133 230.065 46.9847C229.655 46.4729 229.122 46.0659 228.512 45.7995C227.901 45.5332 227.233 45.4155 226.564 45.457C225.896 45.4984 225.248 45.6976 224.678 46.0371C224.108 46.3767 223.633 46.8462 223.294 47.4044C223.011 47.8719 222.632 48.2781 222.179 48.5979C221.727 48.9177 221.211 49.1443 220.665 49.2636C220.118 49.3829 219.551 49.3924 219.001 49.2914C218.45 49.1904 217.927 48.9811 217.463 48.6766C216.909 48.3136 216.272 48.0872 215.606 48.0172C214.941 47.9473 214.268 48.0359 213.647 48.2753C213.025 48.5146 212.473 48.8975 212.04 49.3905C211.607 49.8834 211.306 50.4713 211.162 51.1029C211.042 51.6336 210.81 52.1348 210.48 52.5752C210.151 53.0155 209.731 53.3856 209.247 53.6625C208.763 53.9393 208.226 54.1169 207.668 54.1842C207.11 54.2515 206.543 54.2071 206.004 54.0538C205.361 53.873 204.683 53.847 204.028 53.9781C203.372 54.1092 202.76 54.3935 202.245 54.806C201.729 55.2185 201.327 55.7468 201.071 56.3445C200.816 56.9422 200.716 57.5913 200.781 58.2349C200.781 63.3576 196.244 62.4317 196.244 62.4317C192.987 61.6265 189.707 63.3655 188.762 66.9459C187.839 70.4398 188.659 74.0281 190.638 76.9292C192.267 79.3292 196.301 82.5818 196.304 82.5844C198.039 103.272 207.234 119.774 219.434 122.782C231.349 125.72 247.486 114.758 259.195 98.1258C260.009 98.3147 263.489 99.836 270.249 94.1624C272.074 92.4697 273.388 90.3289 274.05 87.9695C274.948 84.4179 272.994 81.1234 269.674 80.5699Z" fill="#FC503C"/>
<path d="M200.734 58.2634C200.668 57.6181 200.766 56.9668 201.021 56.3668C201.276 55.7668 201.679 55.2365 202.196 54.8225C202.712 54.4086 203.326 54.1236 203.984 53.9927C204.641 53.8618 205.322 53.889 205.966 54.0718C206.505 54.2252 207.072 54.2696 207.63 54.2022C208.188 54.1349 208.725 53.9573 209.209 53.6805C209.693 53.4037 210.113 53.0336 210.442 52.5932C210.772 52.1529 211.004 51.6517 211.124 51.1209C211.267 50.4894 211.569 49.9014 212.002 49.4085C212.435 48.9156 212.987 48.5327 213.608 48.2933C214.23 48.0539 214.903 47.9653 215.568 48.0353C216.234 48.1052 216.871 48.3316 217.425 48.6946C217.888 48.9992 218.412 49.2084 218.963 49.3094C219.513 49.4104 220.08 49.4009 220.626 49.2817C221.173 49.1624 221.689 48.9358 222.141 48.616C222.594 48.2961 222.973 47.8899 223.256 47.4225C223.595 46.8642 224.07 46.3947 224.64 46.0552C225.21 45.7156 225.858 45.5164 226.526 45.475C227.195 45.4336 227.863 45.5512 228.474 45.8176C229.084 46.0839 229.617 46.4909 230.027 47.0028C230.37 47.4313 230.801 47.7872 231.292 48.0484C231.784 48.3096 232.325 48.4705 232.884 48.5211C233.442 48.5718 234.005 48.5111 234.538 48.3429C235.072 48.1747 235.563 47.9025 235.983 47.5431C236.484 47.1147 237.086 46.8112 237.736 46.6592C238.386 46.5073 239.065 46.5114 239.713 46.6713C240.361 46.8312 240.958 47.142 241.453 47.5766C241.949 48.0111 242.326 48.5562 242.553 49.1642V49.1773C242.743 49.687 243.039 50.1536 243.424 50.5481C243.808 50.9426 244.272 51.2567 244.787 51.4709C245.303 51.6851 245.858 51.7948 246.418 51.7933C246.979 51.7917 247.534 51.6789 248.048 51.4619C248.661 51.2026 249.331 51.0926 249.999 51.1414C250.666 51.1903 251.311 51.3965 251.877 51.7421C252.443 52.0876 252.913 52.562 253.246 53.1236C253.578 53.6852 253.763 54.317 253.784 54.9636C253.801 55.505 253.933 56.0372 254.171 56.5274C254.41 57.0175 254.75 57.4551 255.171 57.8131C255.591 58.1711 256.084 58.4419 256.617 58.6087C257.15 58.7754 257.713 58.8347 258.271 58.7828C258.938 58.7168 259.61 58.8097 260.231 59.0534C260.851 59.297 261.4 59.6839 261.829 60.1803C262.259 60.6766 262.556 61.2672 262.694 61.9002C262.833 62.5332 262.808 63.1893 262.623 63.8111C262.465 64.3332 262.419 64.8814 262.49 65.4212C262.56 65.9611 262.745 66.4811 263.033 66.9488C263.321 67.4165 263.706 67.8218 264.163 68.1395C264.62 68.4571 265.14 68.6802 265.691 68.7948C266.345 68.9334 266.953 69.2246 267.464 69.6432C267.974 70.0617 268.37 70.5947 268.618 71.1955C268.865 71.7964 268.956 72.4467 268.884 73.0895C268.811 73.7324 268.576 74.3481 268.199 74.8829C267.113 76.4383 266.644 79.4207 268.908 80.3414C270.185 77.207 271.259 73.999 272.125 70.7359C277.351 50.9583 265.202 30.8843 244.993 25.9006C224.785 20.9168 204.166 32.9119 198.943 52.6895C198.091 55.9231 197.42 59.1987 196.934 62.5022C198.199 62.5389 200.734 62.093 200.734 58.2634Z" fill="#0C42F9"/>
<path d="M269.675 80.5705C269.569 80.5442 269.465 80.5258 269.359 80.5048C269.46 80.531 269.566 80.5521 269.675 80.5705Z" fill="#0C42F9"/>
<path d="M230.418 99.8072C228.246 99.1986 227.312 99.8072 225.385 99.2564C223.457 98.7055 223.012 97.9448 221.329 97.3678C218.161 96.3028 216.969 96.6123 213.86 96.9376C213.86 96.9376 215.932 105.457 223.169 107.482C230.407 109.51 236.871 103.38 236.871 103.38C234.827 101.271 232.182 100.303 230.418 99.8072Z" fill="#0C42F9"/>
<path d="M169.911 134.698L142.611 140.015L157.933 170.206C161.485 177.209 162.709 185.101 161.438 192.802C160.166 200.503 156.462 207.636 150.831 213.224C148.419 215.618 146.822 218.669 146.257 221.966C145.692 225.263 146.184 228.648 147.669 231.666L169.911 276.887V134.698Z" fill="#E5FB35"/>
<path d="M288.494 221.124C282.864 215.536 279.16 208.403 277.89 200.702C276.619 193.002 277.843 185.109 281.395 178.107L295.173 150.956L269.415 142.704V284.801L291.657 239.58C293.145 236.56 293.64 233.172 293.075 229.872C292.509 226.573 290.91 223.52 288.494 221.124Z" fill="#E5FB35"/>
<path d="M195.056 184.488H207.053V252.747C207.053 254.22 206.447 255.632 205.369 256.674C204.292 257.715 202.83 258.3 201.305 258.3H200.809C199.284 258.3 197.823 257.715 196.745 256.674C195.667 255.632 195.061 254.22 195.061 252.747V184.488H195.056Z" fill="#0C42F9"/>
<path d="M213.57 182.71H188.735C187.761 182.71 186.971 183.473 186.971 184.415V184.562C186.971 185.504 187.761 186.267 188.735 186.267H213.57C214.545 186.267 215.335 185.504 215.335 184.562V184.415C215.335 183.473 214.545 182.71 213.57 182.71Z" fill="#E5FB35"/>
<path d="M200.791 262.08L198.636 269.595C198.533 269.955 198.518 270.332 198.59 270.698C198.663 271.064 198.823 271.409 199.057 271.706C199.29 272.003 199.591 272.243 199.937 272.409C200.283 272.575 200.663 272.661 201.049 272.662C201.435 272.662 201.816 272.576 202.162 272.41C202.508 272.245 202.81 272.004 203.044 271.707C203.278 271.41 203.438 271.065 203.511 270.699C203.584 270.333 203.568 269.955 203.465 269.595L201.31 262.08C201.293 262.027 201.258 261.98 201.212 261.947C201.165 261.914 201.109 261.896 201.051 261.896C200.993 261.896 200.936 261.914 200.89 261.947C200.843 261.98 200.809 262.027 200.791 262.08Z" fill="#E5FB35"/>
<path d="M191.71 187.691L197.029 182.707H206.62C207.691 182.707 208.717 182.296 209.475 181.565C210.232 180.834 210.657 179.841 210.657 178.807C210.657 178.295 210.552 177.788 210.35 177.315C210.147 176.842 209.849 176.412 209.474 176.05C209.099 175.688 208.654 175.401 208.165 175.205C207.675 175.009 207.15 174.909 206.62 174.909H195.335C193.344 174.909 191.397 175.468 189.729 176.517C189.729 176.517 174.238 189.06 170.079 194.136C152.566 215.514 55.5672 221.394 31.1614 253.282C22.2569 264.918 20.7719 280.15 31.7803 289.963C39.9572 297.255 51.962 298.684 61.8383 293.735C114.654 267.276 146.569 229.917 183.059 229.917C194.116 231.254 201.049 228.949 204.94 226.769C206.182 226.065 207.211 225.059 207.926 223.851C208.64 222.643 209.015 221.275 209.012 219.884V219.199L208.271 190.472L192.84 190.388C192.518 190.385 192.203 190.291 191.937 190.116C191.67 189.941 191.463 189.693 191.342 189.404C191.221 189.116 191.192 188.799 191.257 188.494C191.323 188.189 191.481 187.909 191.71 187.691Z" fill="#FC503C"/>
<path d="M207.557 219.016C210.602 219.016 213.07 216.63 213.07 213.688C213.07 210.746 210.602 208.361 207.557 208.361C204.511 208.361 202.043 210.746 202.043 213.688C202.043 216.63 204.511 219.016 207.557 219.016Z" fill="#FC503C"/>
<path d="M208.267 209.835C211.312 209.835 213.781 207.45 213.781 204.508C213.781 201.566 211.312 199.18 208.267 199.18C205.222 199.18 202.753 201.566 202.753 204.508C202.753 207.45 205.222 209.835 208.267 209.835Z" fill="#FC503C"/>
<path d="M208.267 201.118C211.312 201.118 213.781 198.733 213.781 195.791C213.781 192.849 211.312 190.464 208.267 190.464C205.222 190.464 202.753 192.849 202.753 195.791C202.753 198.733 205.222 201.118 208.267 201.118Z" fill="#FC503C"/>
<path d="M318.012 296.681H121.418V307.509H318.012V296.681Z" fill="#B39A78"/>
<path d="M269.401 296.681V276.901H280.898V296.681" fill="#FC503C"/>
</g>
<defs>
<filter id="filter0_dd_3444_21614" x="0" y="0" width="426" height="385.605" filterUnits="userSpaceOnUse" color-interpolation-filters="sRGB">
<feFlood flood-opacity="0" result="BackgroundImageFix"/>
<feColorMatrix in="SourceAlpha" type="matrix" values="0 0 0 0 0 0 0 0 0 0 0 0 0 0 0 0 0 0 127 0" result="hardAlpha"/>
<feOffset dy="8"/>
<feGaussianBlur stdDeviation="12"/>
<feColorMatrix type="matrix" values="0 0 0 0 0.0862745 0 0 0 0 0.0862745 0 0 0 0 0.0862745 0 0 0 0.08 0"/>
<feBlend mode="normal" in2="BackgroundImageFix" result="effect1_dropShadow_3444_21614"/>
<feColorMatrix in="SourceAlpha" type="matrix" values="0 0 0 0 0 0 0 0 0 0 0 0 0 0 0 0 0 0 127 0" result="hardAlpha"/>
<feOffset dy="4"/>
<feGaussianBlur stdDeviation="2"/>
<feColorMatrix type="matrix" values="0 0 0 0 0.0862745 0 0 0 0 0.0862745 0 0 0 0 0.0862745 0 0 0 0.04 0"/>
<feBlend mode="normal" in2="effect1_dropShadow_3444_21614" result="effect2_dropShadow_3444_21614"/>
<feBlend mode="normal" in="SourceGraphic" in2="effect2_dropShadow_3444_21614" result="shape"/>
</filter>
</defs>
</svg>
