<svg width="39" height="14" viewBox="0 0 39 14" fill="none" xmlns="http://www.w3.org/2000/svg">
<path d="M8.87918 0.825953C7.85738 0.275643 6.62252 0.000488281 5.1746 0.000488281H0V13.516H2.56981V2.20148H5.13889C6.47117 2.20148 7.49905 2.59072 8.22252 3.3692C8.94599 4.14767 9.30749 5.27736 9.307 6.75825V13.516H11.9723V6.75825C11.9723 5.38006 11.7121 4.18449 11.1917 3.17155C10.6827 2.17011 9.87473 1.35063 8.87918 0.825953Z" fill="#0037FF"/>
<path d="M20.035 0.00012207C18.5885 0.00012207 17.3544 0.275277 16.3326 0.825586C15.3375 1.34989 14.5297 2.16851 14.0201 3.169C13.5007 4.18194 13.2407 5.37824 13.2402 6.75788C13.2397 8.13753 13.4997 9.3331 14.0201 10.3446C14.5293 11.3456 15.3372 12.1645 16.3326 12.6887C17.353 13.2386 18.5871 13.5137 20.035 13.5142H25.2096V0.00012207H20.035ZM22.6427 11.3103H20.0729C18.7406 11.3103 17.7127 10.9213 16.9893 10.1433C16.2658 9.36531 15.9043 8.23684 15.9048 6.75788C15.9048 5.27747 16.2663 4.14852 16.9893 3.37101C17.7123 2.5935 18.7401 2.20427 20.0729 2.2033H22.6427V11.3103Z" fill="#0037FF"/>
<path d="M28.2881 13.5156H27.0098V0.00012207H29.5672V10.9165C32.2026 10.6985 32.5969 9.71822 33.3483 7.84785L33.3898 7.74394L36.1841 0.00012207H38.9755L35.7687 8.68276L35.7235 8.79539C35.2221 10.0438 34.7483 11.2238 33.6252 12.1263C32.4322 13.0848 30.7865 13.5156 28.2881 13.5156Z" fill="#0037FF"/>
</svg>
